<svg width="389" height="107" viewBox="0 0 389 107" fill="none" xmlns="http://www.w3.org/2000/svg">
<path d="M70.15 35.95L65.95 71.05H88V75.25H65.35L61.6 106H57.25L61 75.25H26.35L22.6 106H18.25L22 75.25H0.1V71.05H22.6L26.95 35.95H4.75V31.75H27.55L31.3 0.999993H35.5L31.75 31.75H66.4L70.15 0.999993H74.5L70.75 31.75H92.65V35.95H70.15ZM65.8 35.95H31.15L26.95 71.05H61.6L65.8 35.95ZM192.632 75.7H169.832V106H164.882V75.7H104.582V72.1L162.632 0.999993H168.482L111.182 71.2H164.882V44.5H169.832V71.2H192.632V75.7ZM244.148 106.6C236.248 106.6 229.198 104.45 222.998 100.15C216.898 95.75 212.148 89.55 208.748 81.55C205.348 73.45 203.648 64.1 203.648 53.5C203.648 42.9 205.348 33.6 208.748 25.6C212.148 17.5 216.898 11.3 222.998 7C229.198 2.59999 236.248 0.399992 244.148 0.399992C252.148 0.399992 259.198 2.59999 265.298 7C271.398 11.3 276.148 17.5 279.548 25.6C282.948 33.6 284.648 42.9 284.648 53.5C284.648 64.1 282.948 73.45 279.548 81.55C276.148 89.55 271.398 95.75 265.298 100.15C259.198 104.45 252.148 106.6 244.148 106.6ZM244.148 101.95C251.148 101.95 257.348 100 262.748 96.1C268.148 92.2 272.298 86.6 275.198 79.3C278.198 72 279.698 63.4 279.698 53.5C279.698 43.6 278.198 35 275.198 27.7C272.298 20.4 268.148 14.8 262.748 10.9C257.348 7 251.148 5.04999 244.148 5.04999C237.148 5.04999 230.948 7 225.548 10.9C220.248 14.8 216.098 20.4 213.098 27.7C210.198 35 208.748 43.6 208.748 53.5C208.748 63.4 210.198 72 213.098 79.3C216.098 86.6 220.248 92.2 225.548 96.1C230.948 100 237.148 101.95 244.148 101.95ZM388.189 75.7H365.389V106H360.439V75.7H300.139V72.1L358.189 0.999993H364.039L306.739 71.2H360.439V44.5H365.389V71.2H388.189V75.7Z" fill="black"/>
</svg>
