<svg width="754" height="236" viewBox="0 0 754 236" fill="none" xmlns="http://www.w3.org/2000/svg">
<path d="M75.15 80.95L70.95 116.05H93V120.25H70.35L66.6 151H62.25L66 120.25H31.35L27.6 151H23.25L27 120.25H5.1V116.05H27.6L31.95 80.95H9.75V76.75H32.55L36.3 46H40.5L36.75 76.75H71.4L75.15 46H79.5L75.75 76.75H97.65V80.95H75.15ZM70.8 80.95H36.15L31.95 116.05H66.6L70.8 80.95ZM197.632 120.7H174.832V151H169.882V120.7H109.582V117.1L167.632 46H173.482L116.182 116.2H169.882V89.5H174.832V116.2H197.632V120.7ZM249.148 151.6C241.248 151.6 234.198 149.45 227.998 145.15C221.898 140.75 217.148 134.55 213.748 126.55C210.348 118.45 208.648 109.1 208.648 98.5C208.648 87.9 210.348 78.6 213.748 70.6C217.148 62.5 221.898 56.3 227.998 52C234.198 47.6 241.248 45.4 249.148 45.4C257.148 45.4 264.198 47.6 270.298 52C276.398 56.3 281.148 62.5 284.548 70.6C287.948 78.6 289.648 87.9 289.648 98.5C289.648 109.1 287.948 118.45 284.548 126.55C281.148 134.55 276.398 140.75 270.298 145.15C264.198 149.45 257.148 151.6 249.148 151.6ZM249.148 146.95C256.148 146.95 262.348 145 267.748 141.1C273.148 137.2 277.298 131.6 280.198 124.3C283.198 117 284.698 108.4 284.698 98.5C284.698 88.6 283.198 80 280.198 72.7C277.298 65.4 273.148 59.8 267.748 55.9C262.348 52 256.148 50.05 249.148 50.05C242.148 50.05 235.948 52 230.548 55.9C225.248 59.8 221.098 65.4 218.098 72.7C215.198 80 213.748 88.6 213.748 98.5C213.748 108.4 215.198 117 218.098 124.3C221.098 131.6 225.248 137.2 230.548 141.1C235.948 145 242.148 146.95 249.148 146.95ZM393.189 120.7H370.389V151H365.439V120.7H305.139V117.1L363.189 46H369.039L311.739 116.2H365.439V89.5H370.389V116.2H393.189V120.7Z" fill="black"/>
<path d="M109.656 224.096C108.44 224.096 107.352 223.824 106.392 223.28C105.432 222.736 104.68 221.984 104.136 221.024C103.592 220.048 103.32 218.952 103.32 217.736C103.32 216.504 103.592 215.408 104.136 214.448C104.68 213.472 105.432 212.72 106.392 212.192C107.352 211.648 108.44 211.376 109.656 211.376C110.664 211.376 111.576 211.576 112.392 211.976C113.224 212.36 113.896 212.928 114.408 213.68L113.52 214.328C113.072 213.704 112.512 213.24 111.84 212.936C111.184 212.616 110.456 212.456 109.656 212.456C108.68 212.456 107.8 212.68 107.016 213.128C106.248 213.56 105.64 214.176 105.192 214.976C104.76 215.776 104.544 216.696 104.544 217.736C104.544 218.776 104.76 219.696 105.192 220.496C105.64 221.296 106.248 221.92 107.016 222.368C107.8 222.8 108.68 223.016 109.656 223.016C110.456 223.016 111.184 222.864 111.84 222.56C112.512 222.24 113.072 221.768 113.52 221.144L114.408 221.792C113.896 222.544 113.224 223.12 112.392 223.52C111.576 223.904 110.664 224.096 109.656 224.096ZM126.046 212.552H121.15V224H119.95V212.552H115.054V211.472H126.046V212.552ZM134.927 211.376C136.095 211.376 137.151 211.648 138.095 212.192C139.039 212.736 139.775 213.488 140.303 214.448C140.847 215.408 141.119 216.504 141.119 217.736C141.119 218.968 140.847 220.072 140.303 221.048C139.775 222.008 139.039 222.76 138.095 223.304C137.151 223.832 136.095 224.096 134.927 224.096C133.823 224.096 132.823 223.84 131.927 223.328C131.031 222.8 130.335 222.072 129.839 221.144V228.656H128.639V211.472H129.791V214.424C130.287 213.464 130.983 212.72 131.879 212.192C132.791 211.648 133.807 211.376 134.927 211.376ZM134.855 223.016C135.815 223.016 136.679 222.792 137.447 222.344C138.215 221.896 138.815 221.272 139.247 220.472C139.695 219.672 139.919 218.76 139.919 217.736C139.919 216.712 139.695 215.8 139.247 215C138.815 214.2 138.215 213.576 137.447 213.128C136.679 212.68 135.815 212.456 134.855 212.456C133.895 212.456 133.031 212.68 132.263 213.128C131.511 213.576 130.911 214.2 130.463 215C130.031 215.8 129.815 216.712 129.815 217.736C129.815 218.76 130.031 219.672 130.463 220.472C130.911 221.272 131.511 221.896 132.263 222.344C133.031 222.792 133.895 223.016 134.855 223.016ZM149.127 211.376C150.679 211.376 151.871 211.776 152.703 212.576C153.535 213.36 153.951 214.52 153.951 216.056V224H152.799V221.768C152.399 222.504 151.815 223.08 151.047 223.496C150.279 223.896 149.359 224.096 148.287 224.096C146.895 224.096 145.791 223.768 144.975 223.112C144.175 222.456 143.775 221.592 143.775 220.52C143.775 219.48 144.143 218.64 144.879 218C145.631 217.344 146.823 217.016 148.455 217.016H152.751V216.008C152.751 214.84 152.431 213.952 151.791 213.344C151.167 212.736 150.247 212.432 149.031 212.432C148.199 212.432 147.399 212.576 146.631 212.864C145.879 213.152 145.239 213.536 144.711 214.016L144.111 213.152C144.735 212.592 145.487 212.16 146.367 211.856C147.247 211.536 148.167 211.376 149.127 211.376ZM148.455 223.112C149.495 223.112 150.375 222.872 151.095 222.392C151.831 221.912 152.383 221.216 152.751 220.304V217.952H148.479C147.247 217.952 146.351 218.176 145.791 218.624C145.247 219.072 144.975 219.688 144.975 220.472C144.975 221.288 145.279 221.936 145.887 222.416C146.495 222.88 147.351 223.112 148.455 223.112ZM158.826 211.472H160.026V217.184H168.522V211.472H169.722V224H168.522V218.24H160.026V224H158.826V211.472ZM174.905 211.472H176.105V222.152L185.033 211.472H186.089V224H184.889V213.32L175.961 224H174.905V211.472ZM204.056 222.944V227.264H202.904V224H191.264V211.472H192.464V222.944H200.768V211.472H201.968V222.944H204.056ZM211.705 211.376C213.257 211.376 214.449 211.776 215.281 212.576C216.113 213.36 216.529 214.52 216.529 216.056V224H215.377V221.768C214.977 222.504 214.393 223.08 213.625 223.496C212.857 223.896 211.937 224.096 210.865 224.096C209.473 224.096 208.369 223.768 207.553 223.112C206.753 222.456 206.353 221.592 206.353 220.52C206.353 219.48 206.721 218.64 207.457 218C208.209 217.344 209.401 217.016 211.033 217.016H215.329V216.008C215.329 214.84 215.009 213.952 214.369 213.344C213.745 212.736 212.825 212.432 211.609 212.432C210.777 212.432 209.977 212.576 209.209 212.864C208.457 213.152 207.817 213.536 207.289 214.016L206.689 213.152C207.313 212.592 208.065 212.16 208.945 211.856C209.825 211.536 210.745 211.376 211.705 211.376ZM211.033 223.112C212.073 223.112 212.953 222.872 213.673 222.392C214.409 221.912 214.961 221.216 215.329 220.304V217.952H211.057C209.825 217.952 208.929 218.176 208.369 218.624C207.825 219.072 207.553 219.688 207.553 220.472C207.553 221.288 207.857 221.936 208.465 222.416C209.073 222.88 209.929 223.112 211.033 223.112ZM227.569 211.472H228.769V217.184H237.265V211.472H238.465V224H237.265V218.24H228.769V224H227.569V211.472ZM254.327 218.024H243.551C243.583 219 243.831 219.872 244.295 220.64C244.759 221.392 245.383 221.976 246.167 222.392C246.967 222.808 247.863 223.016 248.855 223.016C249.671 223.016 250.423 222.872 251.111 222.584C251.815 222.28 252.399 221.84 252.863 221.264L253.559 222.056C253.015 222.712 252.327 223.216 251.495 223.568C250.679 223.92 249.791 224.096 248.831 224.096C247.583 224.096 246.471 223.824 245.495 223.28C244.519 222.736 243.751 221.984 243.191 221.024C242.647 220.064 242.375 218.968 242.375 217.736C242.375 216.52 242.631 215.432 243.143 214.472C243.671 213.496 244.391 212.736 245.303 212.192C246.215 211.648 247.239 211.376 248.375 211.376C249.511 211.376 250.527 211.648 251.423 212.192C252.335 212.72 253.047 213.464 253.559 214.424C254.087 215.384 254.351 216.472 254.351 217.688L254.327 218.024ZM248.375 212.432C247.495 212.432 246.703 212.632 245.999 213.032C245.295 213.416 244.727 213.968 244.295 214.688C243.879 215.392 243.639 216.192 243.575 217.088H253.175C253.127 216.192 252.887 215.392 252.455 214.688C252.023 213.984 251.455 213.432 250.751 213.032C250.047 212.632 249.255 212.432 248.375 212.432ZM264.436 211.472H265.636V217.184H274.132V211.472H275.332V224H274.132V218.24H265.636V224H264.436V211.472ZM284.666 211.376C286.218 211.376 287.41 211.776 288.242 212.576C289.074 213.36 289.49 214.52 289.49 216.056V224H288.338V221.768C287.938 222.504 287.354 223.08 286.586 223.496C285.818 223.896 284.898 224.096 283.826 224.096C282.434 224.096 281.33 223.768 280.514 223.112C279.714 222.456 279.314 221.592 279.314 220.52C279.314 219.48 279.682 218.64 280.418 218C281.17 217.344 282.362 217.016 283.994 217.016H288.29V216.008C288.29 214.84 287.97 213.952 287.33 213.344C286.706 212.736 285.786 212.432 284.57 212.432C283.738 212.432 282.938 212.576 282.17 212.864C281.418 213.152 280.778 213.536 280.25 214.016L279.65 213.152C280.274 212.592 281.026 212.16 281.906 211.856C282.786 211.536 283.706 211.376 284.666 211.376ZM283.994 223.112C285.034 223.112 285.914 222.872 286.634 222.392C287.37 221.912 287.922 221.216 288.29 220.304V217.952H284.018C282.786 217.952 281.89 218.176 281.33 218.624C280.786 219.072 280.514 219.688 280.514 220.472C280.514 221.288 280.818 221.936 281.426 222.416C282.034 222.88 282.89 223.112 283.994 223.112ZM294.365 211.472H295.565V222.152L304.493 211.472H305.549V224H304.349V213.32L295.421 224H294.365V211.472ZM299.909 209.552C298.901 209.552 298.085 209.296 297.461 208.784C296.837 208.256 296.517 207.528 296.501 206.6H297.389C297.405 207.256 297.645 207.776 298.109 208.16C298.589 208.544 299.189 208.736 299.909 208.736C300.629 208.736 301.221 208.544 301.685 208.16C302.149 207.776 302.389 207.256 302.405 206.6H303.317C303.301 207.528 302.981 208.256 302.357 208.784C301.733 209.296 300.917 209.552 299.909 209.552ZM322.509 222.944V227.12H321.381V224H309.525V227.12H308.373V222.944H309.117C309.965 222.896 310.541 222.24 310.845 220.976C311.165 219.696 311.389 217.904 311.517 215.6L311.685 211.472H320.493V222.944H322.509ZM312.621 215.672C312.541 217.576 312.381 219.16 312.141 220.424C311.901 221.688 311.469 222.528 310.845 222.944H319.293V212.552H312.765L312.621 215.672ZM336.733 218.024H325.957C325.989 219 326.237 219.872 326.701 220.64C327.165 221.392 327.789 221.976 328.573 222.392C329.373 222.808 330.269 223.016 331.261 223.016C332.077 223.016 332.829 222.872 333.517 222.584C334.221 222.28 334.805 221.84 335.269 221.264L335.965 222.056C335.421 222.712 334.733 223.216 333.901 223.568C333.085 223.92 332.197 224.096 331.237 224.096C329.989 224.096 328.877 223.824 327.901 223.28C326.925 222.736 326.157 221.984 325.597 221.024C325.053 220.064 324.781 218.968 324.781 217.736C324.781 216.52 325.037 215.432 325.549 214.472C326.077 213.496 326.797 212.736 327.709 212.192C328.621 211.648 329.645 211.376 330.781 211.376C331.917 211.376 332.933 211.648 333.829 212.192C334.741 212.72 335.453 213.464 335.965 214.424C336.493 215.384 336.757 216.472 336.757 217.688L336.733 218.024ZM330.781 212.432C329.901 212.432 329.109 212.632 328.405 213.032C327.701 213.416 327.133 213.968 326.701 214.688C326.285 215.392 326.045 216.192 325.981 217.088H335.581C335.533 216.192 335.293 215.392 334.861 214.688C334.429 213.984 333.861 213.432 333.157 213.032C332.453 212.632 331.661 212.432 330.781 212.432ZM340.678 211.472H341.878V217.184H350.374V211.472H351.574V224H350.374V218.24H341.878V224H340.678V211.472ZM360.908 211.376C362.46 211.376 363.652 211.776 364.484 212.576C365.316 213.36 365.732 214.52 365.732 216.056V224H364.58V221.768C364.18 222.504 363.596 223.08 362.828 223.496C362.06 223.896 361.14 224.096 360.068 224.096C358.676 224.096 357.572 223.768 356.756 223.112C355.956 222.456 355.556 221.592 355.556 220.52C355.556 219.48 355.924 218.64 356.66 218C357.412 217.344 358.604 217.016 360.236 217.016H364.532V216.008C364.532 214.84 364.212 213.952 363.572 213.344C362.948 212.736 362.028 212.432 360.812 212.432C359.98 212.432 359.18 212.576 358.412 212.864C357.66 213.152 357.02 213.536 356.492 214.016L355.892 213.152C356.516 212.592 357.268 212.16 358.148 211.856C359.028 211.536 359.948 211.376 360.908 211.376ZM360.236 223.112C361.276 223.112 362.156 222.872 362.876 222.392C363.612 221.912 364.164 221.216 364.532 220.304V217.952H360.26C359.028 217.952 358.132 218.176 357.572 218.624C357.028 219.072 356.756 219.688 356.756 220.472C356.756 221.288 357.06 221.936 357.668 222.416C358.276 222.88 359.132 223.112 360.236 223.112Z" fill="black"/>
<path d="M435.592 108.472V121H434.392V115.6C432.904 116.288 431.416 116.632 429.928 116.632C428.456 116.632 427.296 116.296 426.448 115.624C425.616 114.952 425.2 113.96 425.2 112.648V108.472H426.4V112.576C426.4 113.552 426.728 114.304 427.384 114.832C428.04 115.36 428.944 115.624 430.096 115.624C431.408 115.624 432.84 115.296 434.392 114.64V108.472H435.592ZM449.148 109.552H444.252V121H443.052V109.552H438.156V108.472H449.148V109.552ZM456.123 121.096C454.939 121.096 453.867 120.824 452.907 120.28C451.963 119.736 451.219 118.984 450.675 118.024C450.131 117.048 449.859 115.952 449.859 114.736C449.859 113.52 450.131 112.432 450.675 111.472C451.219 110.496 451.963 109.736 452.907 109.192C453.867 108.648 454.939 108.376 456.123 108.376C457.307 108.376 458.371 108.648 459.315 109.192C460.275 109.736 461.027 110.496 461.571 111.472C462.115 112.432 462.387 113.52 462.387 114.736C462.387 115.952 462.115 117.048 461.571 118.024C461.027 118.984 460.275 119.736 459.315 120.28C458.371 120.824 457.307 121.096 456.123 121.096ZM456.123 120.016C457.083 120.016 457.939 119.792 458.691 119.344C459.459 118.896 460.059 118.272 460.491 117.472C460.939 116.672 461.163 115.76 461.163 114.736C461.163 113.712 460.939 112.8 460.491 112C460.059 111.2 459.459 110.576 458.691 110.128C457.939 109.68 457.083 109.456 456.123 109.456C455.163 109.456 454.299 109.68 453.531 110.128C452.779 110.576 452.179 111.2 451.731 112C451.299 112.8 451.083 113.712 451.083 114.736C451.083 115.76 451.299 116.672 451.731 117.472C452.179 118.272 452.779 118.896 453.531 119.344C454.299 119.792 455.163 120.016 456.123 120.016ZM480.835 109.552H475.939V121H474.739V109.552H469.843V108.472H480.835V109.552ZM487.811 121.096C486.627 121.096 485.555 120.824 484.595 120.28C483.651 119.736 482.907 118.984 482.363 118.024C481.819 117.048 481.547 115.952 481.547 114.736C481.547 113.52 481.819 112.432 482.363 111.472C482.907 110.496 483.651 109.736 484.595 109.192C485.555 108.648 486.627 108.376 487.811 108.376C488.995 108.376 490.059 108.648 491.003 109.192C491.963 109.736 492.715 110.496 493.259 111.472C493.803 112.432 494.075 113.52 494.075 114.736C494.075 115.952 493.803 117.048 493.259 118.024C492.715 118.984 491.963 119.736 491.003 120.28C490.059 120.824 488.995 121.096 487.811 121.096ZM487.811 120.016C488.771 120.016 489.627 119.792 490.379 119.344C491.147 118.896 491.747 118.272 492.179 117.472C492.627 116.672 492.851 115.76 492.851 114.736C492.851 113.712 492.627 112.8 492.179 112C491.747 111.2 491.147 110.576 490.379 110.128C489.627 109.68 488.771 109.456 487.811 109.456C486.851 109.456 485.987 109.68 485.219 110.128C484.467 110.576 483.867 111.2 483.419 112C482.987 112.8 482.771 113.712 482.771 114.736C482.771 115.76 482.987 116.672 483.419 117.472C483.867 118.272 484.467 118.896 485.219 119.344C485.987 119.792 486.851 120.016 487.811 120.016ZM515.091 108.472V121H513.891V109.552H505.347V121H504.147V108.472H515.091ZM525.264 121.096C524.08 121.096 523.008 120.824 522.048 120.28C521.104 119.736 520.36 118.984 519.816 118.024C519.272 117.048 519 115.952 519 114.736C519 113.52 519.272 112.432 519.816 111.472C520.36 110.496 521.104 109.736 522.048 109.192C523.008 108.648 524.08 108.376 525.264 108.376C526.448 108.376 527.512 108.648 528.456 109.192C529.416 109.736 530.168 110.496 530.712 111.472C531.256 112.432 531.528 113.52 531.528 114.736C531.528 115.952 531.256 117.048 530.712 118.024C530.168 118.984 529.416 119.736 528.456 120.28C527.512 120.824 526.448 121.096 525.264 121.096ZM525.264 120.016C526.224 120.016 527.08 119.792 527.832 119.344C528.6 118.896 529.2 118.272 529.632 117.472C530.08 116.672 530.304 115.76 530.304 114.736C530.304 113.712 530.08 112.8 529.632 112C529.2 111.2 528.6 110.576 527.832 110.128C527.08 109.68 526.224 109.456 525.264 109.456C524.304 109.456 523.44 109.68 522.672 110.128C521.92 110.576 521.32 111.2 520.872 112C520.44 112.8 520.224 113.712 520.224 114.736C520.224 115.76 520.44 116.672 520.872 117.472C521.32 118.272 521.92 118.896 522.672 119.344C523.44 119.792 524.304 120.016 525.264 120.016ZM552.284 108.472V121H535.436V108.472H536.636V119.944H543.284V108.472H544.484V119.944H551.084V108.472H552.284ZM567.259 108.472V121H566.059V109.552H559.531L559.363 112.888C559.267 114.616 559.123 116.064 558.931 117.232C558.739 118.4 558.411 119.344 557.947 120.064C557.483 120.784 556.843 121.144 556.027 121.144C555.787 121.144 555.443 121.088 554.995 120.976L555.115 119.944C555.371 120.008 555.563 120.04 555.691 120.04C556.363 120.04 556.875 119.712 557.227 119.056C557.579 118.4 557.819 117.584 557.947 116.608C558.075 115.632 558.179 114.36 558.259 112.792L558.475 108.472H567.259ZM577.436 121.096C576.252 121.096 575.18 120.824 574.22 120.28C573.276 119.736 572.532 118.984 571.988 118.024C571.444 117.048 571.172 115.952 571.172 114.736C571.172 113.52 571.444 112.432 571.988 111.472C572.532 110.496 573.276 109.736 574.22 109.192C575.18 108.648 576.252 108.376 577.436 108.376C578.62 108.376 579.684 108.648 580.628 109.192C581.588 109.736 582.34 110.496 582.884 111.472C583.428 112.432 583.7 113.52 583.7 114.736C583.7 115.952 583.428 117.048 582.884 118.024C582.34 118.984 581.588 119.736 580.628 120.28C579.684 120.824 578.62 121.096 577.436 121.096ZM577.436 120.016C578.396 120.016 579.252 119.792 580.004 119.344C580.772 118.896 581.372 118.272 581.804 117.472C582.252 116.672 582.476 115.76 582.476 114.736C582.476 113.712 582.252 112.8 581.804 112C581.372 111.2 580.772 110.576 580.004 110.128C579.252 109.68 578.396 109.456 577.436 109.456C576.476 109.456 575.612 109.68 574.844 110.128C574.092 110.576 573.492 111.2 573.044 112C572.612 112.8 572.396 113.712 572.396 114.736C572.396 115.76 572.612 116.672 573.044 117.472C573.492 118.272 574.092 118.896 574.844 119.344C575.612 119.792 576.476 120.016 577.436 120.016ZM593.772 108.472H594.972V114.184H603.468V108.472H604.668V121H603.468V115.24H594.972V121H593.772V108.472ZM620.53 115.024H609.754C609.786 116 610.034 116.872 610.498 117.64C610.962 118.392 611.586 118.976 612.37 119.392C613.17 119.808 614.066 120.016 615.058 120.016C615.874 120.016 616.626 119.872 617.314 119.584C618.018 119.28 618.602 118.84 619.066 118.264L619.762 119.056C619.218 119.712 618.53 120.216 617.698 120.568C616.882 120.92 615.994 121.096 615.034 121.096C613.786 121.096 612.674 120.824 611.698 120.28C610.722 119.736 609.954 118.984 609.394 118.024C608.85 117.064 608.578 115.968 608.578 114.736C608.578 113.52 608.834 112.432 609.346 111.472C609.874 110.496 610.594 109.736 611.506 109.192C612.418 108.648 613.442 108.376 614.578 108.376C615.714 108.376 616.73 108.648 617.626 109.192C618.538 109.72 619.25 110.464 619.762 111.424C620.29 112.384 620.554 113.472 620.554 114.688L620.53 115.024ZM614.578 109.432C613.698 109.432 612.906 109.632 612.202 110.032C611.498 110.416 610.93 110.968 610.498 111.688C610.082 112.392 609.842 113.192 609.778 114.088H619.378C619.33 113.192 619.09 112.392 618.658 111.688C618.226 110.984 617.658 110.432 616.954 110.032C616.25 109.632 615.458 109.432 614.578 109.432ZM639.015 109.552H634.119V121H632.919V109.552H628.023V108.472H639.015V109.552ZM645.736 108.376C647.288 108.376 648.48 108.776 649.312 109.576C650.144 110.36 650.56 111.52 650.56 113.056V121H649.408V118.768C649.008 119.504 648.424 120.08 647.656 120.496C646.888 120.896 645.968 121.096 644.896 121.096C643.504 121.096 642.4 120.768 641.584 120.112C640.784 119.456 640.384 118.592 640.384 117.52C640.384 116.48 640.752 115.64 641.488 115C642.24 114.344 643.432 114.016 645.064 114.016H649.36V113.008C649.36 111.84 649.04 110.952 648.4 110.344C647.776 109.736 646.856 109.432 645.64 109.432C644.808 109.432 644.008 109.576 643.24 109.864C642.488 110.152 641.848 110.536 641.32 111.016L640.72 110.152C641.344 109.592 642.096 109.16 642.976 108.856C643.856 108.536 644.776 108.376 645.736 108.376ZM645.064 120.112C646.104 120.112 646.984 119.872 647.704 119.392C648.44 118.912 648.992 118.216 649.36 117.304V114.952H645.088C643.856 114.952 642.96 115.176 642.4 115.624C641.856 116.072 641.584 116.688 641.584 117.472C641.584 118.288 641.888 118.936 642.496 119.416C643.104 119.88 643.96 120.112 645.064 120.112ZM659.684 115.192H656.636V121H655.436V108.472H656.636V114.16H659.684L664.412 108.472H665.732L660.644 114.544L666.116 121H664.676L659.684 115.192Z" fill="black"/>
<rect x="366" y="146" width="332" height="5" fill="black"/>
<rect x="754" y="218" width="320" height="4.99997" transform="rotate(-180 754 218)" fill="black"/>
<path d="M699 139C699 134.582 702.582 131 707 131H727V165H707C702.582 165 699 161.418 699 157V139Z" fill="black"/>
<path d="M433 225C433 229.418 429.418 233 425 233L405 233L405 199L425 199C429.418 199 433 202.582 433 207L433 225Z" fill="black"/>
<rect x="728" y="128" width="8" height="40" fill="black"/>
<rect x="404" y="236" width="8" height="40" transform="rotate(-180 404 236)" fill="black"/>
<path d="M736 140L736 135L751.5 135C752.881 135 754 136.119 754 137.5C754 138.881 752.881 140 751.5 140L736 140Z" fill="black"/>
<path d="M736 162L736 157L751.5 157C752.881 157 754 158.119 754 159.5C754 160.881 752.881 162 751.5 162L736 162Z" fill="black"/>
</svg>
