<svg width="428" height="163" viewBox="0 0 428 163" fill="none" xmlns="http://www.w3.org/2000/svg">
<path d="M406.6 80.9184C406.6 70.4399 397.925 61.7077 387.514 61.7077C377.103 61.7077 368.427 70.4399 368.427 80.9184C368.427 86.1577 368.427 119.922 368.427 119.922H347.027C347.027 119.922 347.027 91.9791 347.027 80.9184C347.027 58.2149 364.957 40.1685 387.514 40.1685C410.071 40.1685 428 58.2149 428 80.9184C428 92.5613 428 119.922 428 119.922H407.179C406.6 119.922 406.6 86.1577 406.6 80.9184Z" fill="black"/>
<path d="M256.8 80.9185C256.8 58.2149 274.73 40.1685 297.286 40.1685C319.843 40.1685 337.773 58.2149 337.773 80.9185C337.773 103.622 319.843 121.668 297.286 121.668C275.308 121.668 256.8 103.622 256.8 80.9185ZM297.286 100.129C308.275 100.129 316.951 91.397 316.951 80.3363C316.951 69.2756 308.275 60.5435 297.286 60.5435C286.297 60.5435 277.621 69.2756 277.621 80.3363C278.2 91.397 286.875 100.711 297.286 100.129C297.286 100.711 297.286 100.711 297.286 100.129Z" fill="black"/>
<path d="M207.059 66.3637C204.167 64.0352 204.746 60.5423 209.951 59.378C219.205 57.6316 229.038 59.378 237.135 63.453L247.546 49.4816C239.448 43.6602 229.616 40.1673 219.784 40.1673C219.784 40.1673 196.648 37.2566 186.816 55.303C182.189 65.1994 185.659 76.8423 194.913 82.6637C204.746 89.0673 222.675 91.3959 227.881 94.3066C233.086 97.2173 230.773 101.874 224.411 103.039C213.421 104.203 202.432 101.292 193.757 95.4709L183.346 109.442C192.021 115.846 202.432 120.503 212.843 121.667C212.843 121.667 234.821 125.742 246.967 110.024C253.908 100.71 252.751 87.3209 243.497 80.3352C242.34 79.1709 240.605 78.5887 239.448 78.0066C228.459 72.1852 212.265 69.8566 207.059 66.3637Z" fill="black"/>
<path d="M107 136.221C113.362 140.296 120.302 143.207 127.243 143.789C150.378 144.371 152.113 119.921 152.113 114.099C146.908 118.757 139.967 121.667 133.027 121.667C111.048 121.667 93.1184 104.203 92.54 82.0816V81.4994C92.54 70.4387 92.54 41.3315 92.54 41.3315H113.94C113.94 41.3315 113.94 76.2601 113.94 81.4994C113.94 91.978 122.616 100.71 133.027 100.71C143.437 100.71 152.113 91.978 152.113 81.4994C152.113 76.8423 152.113 41.3315 152.113 41.3315H173.513V81.4994C173.513 117.01 175.248 153.103 141.124 161.835C125.508 165.328 108.735 161.253 96.0103 150.774L107 136.221Z" fill="black"/>
<path d="M81.5514 0H60.1514V39.5857H40.4865C17.9297 39.5857 0 57.6321 0 80.3357C0 103.039 17.9297 121.086 40.4865 121.086C63.0432 121.086 80.973 103.039 80.973 80.3357C80.973 69.275 80.973 39.5857 80.973 39.5857L81.5514 0ZM60.1514 80.9179C60.1514 91.3964 51.4757 100.129 40.4865 100.129C30.0757 100.129 21.4 91.3964 21.4 80.3357C21.4 69.8571 30.0757 61.125 40.4865 61.125H59.573L60.1514 80.9179Z" fill="black"/>
</svg>
