<svg width="116" height="44" viewBox="0 0 116 44" fill="none" xmlns="http://www.w3.org/2000/svg">
<g clip-path="url(#clip0_1402_2142)">
<path d="M110.2 21.8428C110.2 19.0142 107.848 16.6571 105.027 16.6571C102.205 16.6571 99.8537 19.0142 99.8537 21.8428C99.8537 23.2571 99.8537 32.3713 99.8537 32.3713H94.0537C94.0537 32.3713 94.0537 24.8285 94.0537 21.8428C94.0537 15.7142 98.9132 10.8428 105.027 10.8428C111.14 10.8428 116 15.7142 116 21.8428C116 24.9856 116 32.3713 116 32.3713H110.356C110.2 32.3713 110.2 23.2571 110.2 21.8428Z" fill="black"/>
<path d="M69.5996 21.8428C69.5996 15.7142 74.4591 10.8428 80.5726 10.8428C86.6861 10.8428 91.5455 15.7142 91.5455 21.8428C91.5455 27.9713 86.6861 32.8428 80.5726 32.8428C74.6158 32.8428 69.5996 27.9713 69.5996 21.8428ZM80.5726 27.0285C83.5509 27.0285 85.9023 24.6713 85.9023 21.6856C85.9023 18.6999 83.5509 16.3428 80.5726 16.3428C77.5942 16.3428 75.2428 18.6999 75.2428 21.6856C75.3996 24.6713 77.7509 27.1856 80.5726 27.0285C80.5726 27.1856 80.5726 27.1856 80.5726 27.0285Z" fill="black"/>
<path d="M56.1184 17.9141C55.3346 17.2855 55.4914 16.3426 56.9022 16.0284C59.4103 15.5569 62.0752 16.0284 64.2698 17.1284L67.0914 13.3569C64.8968 11.7855 62.2319 10.8426 59.5671 10.8426C59.5671 10.8426 53.2968 10.0569 50.6319 14.9284C49.3779 17.5998 50.3184 20.7426 52.8265 22.3141C55.4914 24.0426 60.3509 24.6712 61.7617 25.4569C63.1725 26.2426 62.5455 27.4998 60.8211 27.8141C57.8428 28.1284 54.8644 27.3426 52.513 25.7712L49.6914 29.5426C52.0428 31.2712 54.8644 32.5284 57.686 32.8426C57.686 32.8426 63.6428 33.9426 66.9346 29.6998C68.8157 27.1855 68.5022 23.5712 65.9941 21.6855C65.6806 21.3712 65.2103 21.2141 64.8968 21.0569C61.9184 19.4855 57.5292 18.8569 56.1184 17.9141Z" fill="black"/>
<path d="M29 36.7715C30.7243 37.8715 32.6054 38.6573 34.4865 38.8144C40.7567 38.9715 41.227 32.3715 41.227 30.8001C39.8162 32.0572 37.9351 32.843 36.054 32.843C30.0973 32.843 25.2378 28.1287 25.0811 22.1572V22.0001C25.0811 19.0144 25.0811 11.1572 25.0811 11.1572H30.8811C30.8811 11.1572 30.8811 20.5858 30.8811 22.0001C30.8811 24.8287 33.2324 27.1858 36.054 27.1858C38.8757 27.1858 41.227 24.8287 41.227 22.0001C41.227 20.743 41.227 11.1572 41.227 11.1572H47.027V22.0001C47.027 31.5858 47.4973 41.3287 38.2486 43.6858C34.0162 44.6287 29.4702 43.5287 26.0216 40.7001L29 36.7715Z" fill="black"/>
<path d="M22.1027 0H16.3027V10.6857H10.973C4.85946 10.6857 0 15.5571 0 21.6857C0 27.8143 4.85946 32.6857 10.973 32.6857C17.0865 32.6857 21.9459 27.8143 21.9459 21.6857C21.9459 18.7 21.9459 10.6857 21.9459 10.6857L22.1027 0ZM16.3027 21.8429C16.3027 24.6714 13.9514 27.0286 10.973 27.0286C8.15135 27.0286 5.8 24.6714 5.8 21.6857C5.8 18.8571 8.15135 16.5 10.973 16.5H16.1459L16.3027 21.8429Z" fill="black"/>
</g>
<defs>
<clipPath id="clip0_1402_2142">
<rect width="116" height="44" fill="white"/>
</clipPath>
</defs>
</svg>
