<svg width="106" height="40" viewBox="0 0 106 40" fill="none" xmlns="http://www.w3.org/2000/svg">
<path d="M100.182 19.8572C100.182 17.2857 98.0442 15.1429 95.4791 15.1429C92.914 15.1429 90.7764 17.2857 90.7764 19.8572C90.7764 21.1429 90.7764 29.4286 90.7764 29.4286H85.5037C85.5037 29.4286 85.5037 22.5715 85.5037 19.8572C85.5037 14.2857 89.9214 9.85718 95.4791 9.85718C101.037 9.85718 105.455 14.2857 105.455 19.8572C105.455 22.7143 105.455 29.4286 105.455 29.4286H100.324C100.182 29.4286 100.182 21.1429 100.182 19.8572Z" fill="#AFAFAF"/>
<path d="M63.2728 19.8572C63.2728 14.2857 67.6904 9.85718 73.2482 9.85718C78.8059 9.85718 83.2236 14.2857 83.2236 19.8572C83.2236 25.4286 78.8059 29.8572 73.2482 29.8572C67.833 29.8572 63.2728 25.4286 63.2728 19.8572ZM73.2482 24.5715C75.9558 24.5715 78.0934 22.4286 78.0934 19.7143C78.0934 17 75.9558 14.8572 73.2482 14.8572C70.5406 14.8572 68.403 17 68.403 19.7143C68.5455 22.4286 70.6831 24.7143 73.2482 24.5715C73.2482 24.7143 73.2482 24.7143 73.2482 24.5715Z" fill="#AFAFAF"/>
<path d="M51.0171 16.2855C50.3046 15.7141 50.4471 14.8569 51.7297 14.5712C54.0098 14.1427 56.4324 14.5712 58.4274 15.5712L60.9926 12.1427C58.9975 10.7141 56.5749 9.85694 54.1523 9.85694C54.1523 9.85694 48.452 9.14266 46.0294 13.5712C44.8894 15.9998 45.7444 18.8569 48.0245 20.2855C50.4471 21.8569 54.8648 22.4284 56.1474 23.1427C57.4299 23.8569 56.8599 24.9998 55.2923 25.2855C52.5847 25.5712 49.8771 24.8569 47.7395 23.4284L45.1744 26.8569C47.312 28.4284 49.8771 29.5712 52.4422 29.857C52.4422 29.857 57.8574 30.857 60.8501 26.9998C62.5601 24.7141 62.2751 21.4284 59.995 19.7141C59.71 19.4284 59.2825 19.2855 58.9975 19.1427C56.2899 17.7141 52.2997 17.1427 51.0171 16.2855Z" fill="#AFAFAF"/>
<path d="M26.3636 33.4286C27.9312 34.4286 29.6413 35.1428 31.3513 35.2857C37.0516 35.4286 37.4791 29.4286 37.4791 28C36.1965 29.1428 34.4865 29.8571 32.7764 29.8571C27.3612 29.8571 22.9435 25.5714 22.801 20.1428V20C22.801 17.2857 22.801 10.1428 22.801 10.1428H28.0737C28.0737 10.1428 28.0737 18.7143 28.0737 20C28.0737 22.5714 30.2113 24.7143 32.7764 24.7143C35.3415 24.7143 37.4791 22.5714 37.4791 20C37.4791 18.8571 37.4791 10.1428 37.4791 10.1428H42.7518V20C42.7518 28.7143 43.1793 37.5714 34.7715 39.7143C30.9238 40.5714 26.7911 39.5714 23.656 37L26.3636 33.4286Z" fill="#AFAFAF"/>
<path d="M20.0934 0H14.8206V9.71428H9.97543C4.41769 9.71428 0 14.1429 0 19.7143C0 25.2857 4.41769 29.7143 9.97543 29.7143C15.5332 29.7143 19.9509 25.2857 19.9509 19.7143C19.9509 17 19.9509 9.71428 19.9509 9.71428L20.0934 0ZM14.8206 19.8571C14.8206 22.4286 12.683 24.5714 9.97543 24.5714C7.41032 24.5714 5.27273 22.4286 5.27273 19.7143C5.27273 17.1429 7.41032 15 9.97543 15H14.6781L14.8206 19.8571Z" fill="#AFAFAF"/>
</svg>
