<svg width="1900" height="393" viewBox="0 0 1900 393" fill="none" xmlns="http://www.w3.org/2000/svg">
<path d="M-1 391H463.2C468.723 391 473.2 386.523 473.2 381V322.5C473.2 316.977 477.677 312.5 483.2 312.5H553.8C559.323 312.5 563.8 316.977 563.8 322.5V381C563.8 386.523 568.277 391 573.8 391H1905M487 231.6C479.317 242.958 474.842 256.827 473.575 273.208C473.149 278.714 477.677 283.2 483.2 283.2H553.8C559.323 283.2 563.691 278.693 564.549 273.237C565.892 264.695 569.042 257.216 574 250.8C580.8 241.6 591.6 230.4 606.4 217.2C618.8 206 628.8 196.2 636.4 187.8C644.4 179 651 168.4 656.2 156C661.8 143.6 664.6 129.2 664.6 112.8C664.6 78 650.6 50.8 622.6 31.2C595 11.6 558.2 1.80005 512.2 1.80005C449.438 1.80005 386.809 22.6006 348.45 73.5938C345.012 78.1646 346.535 84.6265 351.468 87.5211L407.115 120.174C411.58 122.793 417.268 121.535 420.62 117.591C440.925 93.6997 470.231 80.4 502 80.4C521.6 80.4 537.2 84.8 548.8 93.6C560.8 102 566.8 113.6 566.8 128.4C566.8 138.8 563.6 148.2 557.2 156.6C551.2 164.6 541.6 174.6 528.4 186.6C510.4 203 496.6 218 487 231.6Z" stroke="#8F8F8F" stroke-width="3"/>
</svg>
