<svg width="150" height="20" viewBox="0 0 150 20" fill="none" xmlns="http://www.w3.org/2000/svg">
<path d="M35.8128 12.7501H30.9308L29.9995 15.0001H27.5059L32.1926 4.50007H34.5961L39.2979 15.0001H36.7442L35.8128 12.7501ZM35.0467 10.9051L33.3793 6.88507L31.7119 10.9051H35.0467Z" fill="black"/>
<path d="M47.0885 15.0001L45.0605 12.0751H44.9404H42.8223V15.0001H40.3888V4.50007H44.9404C45.8717 4.50007 46.6779 4.65507 47.3589 4.96507C48.0499 5.27507 48.5806 5.71507 48.9512 6.28507C49.3217 6.85507 49.507 7.53007 49.507 8.31007C49.507 9.09007 49.3167 9.76507 48.9361 10.3351C48.5656 10.8951 48.0348 11.3251 47.3438 11.6251L49.7022 15.0001H47.0885ZM47.0434 8.31007C47.0434 7.72007 46.8531 7.27007 46.4726 6.96007C46.092 6.64007 45.5362 6.48007 44.8052 6.48007H42.8223V10.1401H44.8052C45.5362 10.1401 46.092 9.98007 46.4726 9.66007C46.8531 9.34007 47.0434 8.89007 47.0434 8.31007Z" fill="black"/>
<path d="M53.4664 6.48007H50.1016V4.50007H59.2648V6.48007H55.9V15.0001H53.4664V6.48007Z" fill="black"/>
<path d="M68.7159 13.0501V15.0001H60.5742V4.50007H68.5206V6.45007H62.9926V8.73007H67.8747V10.6201H62.9926V13.0501H68.7159Z" fill="black"/>
<path d="M80.221 15.0001L80.2059 8.70007L77.1115 13.8901H76.0149L72.9355 8.83507V15.0001H70.6522V4.50007H72.6651L76.6007 11.0251L80.4763 4.50007H82.4742L82.5042 15.0001H80.221Z" fill="black"/>
<path d="M94.3455 15.1801C93.254 15.1801 92.2675 14.9451 91.3863 14.4751C90.515 14.0051 89.829 13.3601 89.3283 12.5401C88.8376 11.7101 88.5922 10.7801 88.5922 9.75007C88.5922 8.72007 88.8376 7.79507 89.3283 6.97507C89.829 6.14507 90.515 5.49507 91.3863 5.02507C92.2675 4.55507 93.254 4.32007 94.3455 4.32007C95.4371 4.32007 96.4185 4.55507 97.2898 5.02507C98.161 5.49507 98.847 6.14507 99.3478 6.97507C99.8485 7.79507 100.099 8.72007 100.099 9.75007C100.099 10.7801 99.8485 11.7101 99.3478 12.5401C98.847 13.3601 98.161 14.0051 97.2898 14.4751C96.4185 14.9451 95.4371 15.1801 94.3455 15.1801ZM94.3455 13.1101C94.9664 13.1101 95.5272 12.9701 96.028 12.6901C96.5287 12.4001 96.9193 12.0001 97.1997 11.4901C97.4901 10.9801 97.6353 10.4001 97.6353 9.75007C97.6353 9.10007 97.4901 8.52007 97.1997 8.01007C96.9193 7.50007 96.5287 7.10507 96.028 6.82507C95.5272 6.53507 94.9664 6.39007 94.3455 6.39007C93.7246 6.39007 93.1638 6.53507 92.6631 6.82507C92.1624 7.10507 91.7668 7.50007 91.4764 8.01007C91.196 8.52007 91.0558 9.10007 91.0558 9.75007C91.0558 10.4001 91.196 10.9801 91.4764 11.4901C91.7668 12.0001 92.1624 12.4001 92.6631 12.6901C93.1638 12.9701 93.7246 13.1101 94.3455 13.1101Z" fill="black"/>
<path d="M106.479 4.50007C107.411 4.50007 108.217 4.65507 108.898 4.96507C109.589 5.27507 110.12 5.71507 110.49 6.28507C110.861 6.85507 111.046 7.53007 111.046 8.31007C111.046 9.08007 110.861 9.75507 110.49 10.3351C110.12 10.9051 109.589 11.3451 108.898 11.6551C108.217 11.9551 107.411 12.1051 106.479 12.1051H104.361V15.0001H101.928V4.50007H106.479ZM106.344 10.1251C107.075 10.1251 107.631 9.97007 108.011 9.66007C108.392 9.34007 108.582 8.89007 108.582 8.31007C108.582 7.72007 108.392 7.27007 108.011 6.96007C107.631 6.64007 107.075 6.48007 106.344 6.48007H104.361V10.1251H106.344Z" fill="black"/>
<path d="M119.18 12.7501H114.298L113.367 15.0001H110.873L115.56 4.50007H117.963L122.665 15.0001H120.111L119.18 12.7501ZM118.414 10.9051L116.747 6.88507L115.079 10.9051H118.414Z" fill="black"/>
<path d="M130.456 15.0001L128.428 12.0751H128.308H126.19V15.0001H123.756V4.50007H128.308C129.239 4.50007 130.045 4.65507 130.726 4.96507C131.417 5.27507 131.948 5.71507 132.318 6.28507C132.689 6.85507 132.874 7.53007 132.874 8.31007C132.874 9.09007 132.684 9.76507 132.303 10.3351C131.933 10.8951 131.402 11.3251 130.711 11.6251L133.069 15.0001H130.456ZM130.411 8.31007C130.411 7.72007 130.22 7.27007 129.84 6.96007C129.459 6.64007 128.903 6.48007 128.172 6.48007H126.19V10.1401H128.172C128.903 10.1401 129.459 9.98007 129.84 9.66007C130.22 9.34007 130.411 8.89007 130.411 8.31007Z" fill="black"/>
<path d="M134.802 4.50007H137.236V15.0001H134.802V4.50007Z" fill="black"/>
<path d="M149.375 4.50007V15.0001H147.377L142.135 8.62507V15.0001H139.731V4.50007H141.744L146.972 10.8751V4.50007H149.375Z" fill="black"/>
<path fill-rule="evenodd" clip-rule="evenodd" d="M10.0144 18.2759C14.5917 18.2759 18.3022 14.5706 18.3022 10C18.3022 5.42937 14.5917 1.72414 10.0144 1.72414C5.43721 1.72414 1.72663 5.42937 1.72663 10C1.72663 14.5706 5.43721 18.2759 10.0144 18.2759ZM10.0144 20C15.5453 20 20.0289 15.5228 20.0289 10C20.0289 4.47715 15.5453 0 10.0144 0C4.48362 0 0 4.47715 0 10C0 15.5228 4.48362 20 10.0144 20Z" fill="black"/>
<path fill-rule="evenodd" clip-rule="evenodd" d="M10.0143 1.03467L5.22937 10.6036H14.7993L10.0143 1.03467ZM10.0143 4.8941L8.02144 8.8795H12.0072L10.0143 4.8941Z" fill="black"/>
<path fill-rule="evenodd" clip-rule="evenodd" d="M4.30084 13.2759H15.7277L17.0023 15.8214L15.458 16.5924L14.6606 15H5.36795L4.57059 16.5924L3.02624 15.8214L4.30084 13.2759Z" fill="black"/>
</svg>
