<svg width="30" height="30" viewBox="0 0 30 30" fill="none" xmlns="http://www.w3.org/2000/svg">
<path d="M25.6066 4.39338C22.7734 1.56025 19.0067 0 15 0C10.9933 0 7.22657 1.56025 4.39338 4.39338C1.56034 7.22657 0 10.9933 0 15C0 19.0067 1.56034 22.7734 4.39338 25.6066C7.22657 28.4398 10.9933 30 15 30C19.0067 30 22.7734 28.4398 25.6066 25.6066C28.4397 22.7734 30 19.0067 30 15C30 10.9933 28.4397 7.22657 25.6066 4.39338ZM24.9423 24.9423C22.2866 27.598 18.7557 29.0605 15 29.0605C11.2443 29.0605 7.71338 27.598 5.05765 24.9423C2.40201 22.2866 0.939461 18.7557 0.939461 15C0.939461 11.2443 2.40201 7.71338 5.05765 5.05775C7.71338 2.40201 11.2443 0.939461 15 0.939461C18.7557 0.939461 22.2866 2.40201 24.9423 5.05775C27.598 7.71338 29.0605 11.2443 29.0605 15C29.0605 18.7557 27.598 22.2866 24.9423 24.9423ZM15.4697 5.98123H14.5302V3.47598H15.4697V5.98123ZM14.5302 24.0188H15.4697V26.524H14.5302V24.0188ZM5.98123 15.4697H3.47598V14.5302H5.98118V15.4697H5.98123ZM26.524 14.5302V15.4697H24.0188V14.5302H26.524ZM9.58265 6.55676L8.83108 5.25505L9.64466 4.78529L10.3962 6.08701L9.58265 6.55676ZM20.4166 23.444L21.1681 24.7457L20.3545 25.2154L19.6029 23.9137L20.4166 23.444ZM6.08632 19.6039L6.55608 20.4174L5.25436 21.169L4.78461 20.3554L6.08632 19.6039ZM23.9133 10.3957L23.4436 9.58216L24.7453 8.83059L25.215 9.64417L23.9133 10.3957ZM20.4168 6.55632L19.6032 6.08657L20.3548 4.78485L21.1683 5.25461L20.4168 6.55632ZM9.58289 23.4441L10.3965 23.9138L9.6449 25.2156L8.83132 24.7458L9.58289 23.4441ZM23.9139 19.6042L25.2156 20.3557L24.7459 21.1693L23.4442 20.4177L23.9139 19.6042ZM5.25495 8.83147L6.55667 9.58304L6.08691 10.3966L4.7852 9.64505L5.25495 8.83147ZM16.4718 15C16.4718 14.3527 16.0516 13.8021 15.4697 13.6055V6.98328H14.5302V13.6054C13.9484 13.802 13.5282 14.3526 13.5282 15C13.5282 15.8115 14.1884 16.4718 15 16.4718C15.3725 16.4718 15.713 16.3323 15.9725 16.1033L21.713 19.4151L22.1825 18.6014L16.4429 15.29C16.4618 15.1964 16.4718 15.0993 16.4718 15ZM15 15.5324C14.7065 15.5324 14.4676 15.2935 14.4676 15C14.4676 14.7065 14.7065 14.4676 15 14.4676C15.2935 14.4676 15.5324 14.7065 15.5324 15C15.5324 15.2935 15.2935 15.5324 15 15.5324ZM15 2.5052C8.11034 2.5052 2.5052 8.11034 2.5052 15C2.5052 21.8897 8.11029 27.4948 15 27.4948C21.8897 27.4948 27.4948 21.8897 27.4948 15C27.4948 8.11034 21.8897 2.5052 15 2.5052ZM15 26.5553C8.62838 26.5553 3.44466 21.3716 3.44466 15C3.44466 8.62843 8.62838 3.44466 15 3.44466C21.3716 3.44466 26.5553 8.62843 26.5553 15C26.5553 21.3716 21.3716 26.5553 15 26.5553Z" fill="#8F8F8F"/>
</svg>
