<svg width="128" height="128" viewBox="0 0 128 128" fill="none" xmlns="http://www.w3.org/2000/svg">
<path d="M30 59.4204V73.4204L38 69.4204L46.5 73.4204V59.4204M30 59.4204H46.5M30 59.4204H9V103.92M46.5 59.4204H67V71.4204M41.5 103.92H67V71.4204M18.5 103.92H9M9 103.92V112.92H18.5M41.5 112.92H67M92 112.92H100V103.92M100 103.92H92M100 103.92L92 71.4204H67" stroke="#8F8F8F" stroke-width="4" stroke-linecap="round" stroke-linejoin="round"/>
<circle cx="30" cy="108.92" r="12" stroke="#8F8F8F" stroke-width="4"/>
<circle cx="79" cy="108.92" r="12" stroke="#8F8F8F" stroke-width="4"/>
<path d="M46.2656 22.0575C52.4707 18.8262 59.5224 17 67 17C67.9252 17 68.8438 17.028 69.7551 17.0831M29.1422 37.6897C25.0546 44.0433 22.9475 50.9924 22.5 59M104.653 86.7407C102.67 89.7669 100.632 92.0397 98 94.5M111.769 66.6552C111.922 65.1434 112 63.6096 112 62.0575C112 53.4681 109.6 45.44 105.434 38.6092" stroke="#8F8F8F" stroke-width="4" stroke-linecap="round" stroke-linejoin="round"/>
<circle cx="30" cy="108.92" r="4" stroke="#8F8F8F" stroke-width="4"/>
<ellipse cx="37.5" cy="29" rx="3.5" ry="4" stroke="#8F8F8F" stroke-width="4"/>
<ellipse cx="113" cy="77.5" rx="4" ry="3.5" stroke="#8F8F8F" stroke-width="4"/>
<circle cx="88.5" cy="27.5" r="6.5" stroke="#8F8F8F" stroke-width="4"/>
<circle cx="79" cy="108.92" r="4" stroke="#8F8F8F" stroke-width="4"/>
<path d="M37.5 45L36.1056 46.4338L37.5 47.7898L38.8944 46.4338L37.5 45ZM44.2374 35.6581L36.1056 43.5662L38.8944 46.4338L47.0261 38.5257L44.2374 35.6581ZM38.8944 43.5662L30.7626 35.6581L27.9739 38.5257L36.1056 46.4338L38.8944 43.5662ZM30.7626 35.6581C27.0791 32.0759 27.0791 26.2917 30.7626 22.7094L27.9739 19.8419C22.6754 24.9947 22.6754 33.3728 27.9739 38.5257L30.7626 35.6581ZM44.2374 22.7094C47.9209 26.2917 47.9209 32.0759 44.2374 35.6581L47.0261 38.5257C52.3246 33.3728 52.3246 24.9947 47.0261 19.8419L44.2374 22.7094ZM47.0261 19.8419C41.7588 14.7194 33.2412 14.7194 27.9739 19.8419L30.7626 22.7094C34.4774 19.0969 40.5226 19.0969 44.2374 22.7094L47.0261 19.8419Z" fill="#8F8F8F"/>
<path d="M113 93L111.601 94.4291L113 95.799L114.399 94.4291L113 93ZM119.379 83.9557L111.601 91.5709L114.399 94.4291L122.177 86.8139L119.379 83.9557ZM114.399 91.5709L106.621 83.9557L103.823 86.8139L111.601 94.4291L114.399 91.5709ZM106.621 83.9557C103.126 80.5342 103.126 75.0049 106.621 71.5834L103.823 68.7252C98.7258 73.7153 98.7258 81.8238 103.823 86.8139L106.621 83.9557ZM119.379 71.5834C122.874 75.0049 122.874 80.5342 119.379 83.9557L122.177 86.8139C127.274 81.8238 127.274 73.7153 122.177 68.7252L119.379 71.5834ZM122.177 68.7252C117.104 63.7583 108.896 63.7583 103.823 68.7252L106.621 71.5834C110.139 68.1389 115.861 68.1389 119.379 71.5834L122.177 68.7252Z" fill="#8F8F8F"/>
<path d="M88 56L86.5754 57.4038L88 58.8495L89.4246 57.4038L88 56ZM73.8579 41.6482L72.4333 43.052L73.8579 41.6482ZM102.142 41.6482L103.567 43.052L102.142 41.6482ZM100.718 40.2445L86.5754 54.5962L89.4246 57.4038L103.567 43.052L100.718 40.2445ZM89.4246 54.5962L75.2824 40.2445L72.4333 43.052L86.5754 57.4038L89.4246 54.5962ZM75.2824 40.2445C68.2392 33.0968 68.2392 21.4961 75.2824 14.3485L72.4333 11.5409C63.8556 20.2458 63.8556 34.3471 72.4333 43.052L75.2824 40.2445ZM100.718 14.3485C107.761 21.4961 107.761 33.0968 100.718 40.2445L103.567 43.052C112.144 34.3471 112.144 20.2458 103.567 11.5409L100.718 14.3485ZM103.567 11.5409C94.9729 2.81969 81.0271 2.81969 72.4333 11.5409L75.2824 14.3485C82.3096 7.21718 93.6904 7.21718 100.718 14.3485L103.567 11.5409Z" fill="#8F8F8F"/>
</svg>
