<svg width="128" height="128" viewBox="0 0 128 128" fill="none" xmlns="http://www.w3.org/2000/svg">
<path d="M60.0717 55.7147L58.6574 54.3005C57.8764 55.0816 57.8764 56.3479 58.6574 57.1289L60.0717 55.7147ZM80.7368 79.2083C81.5178 79.9893 82.7842 79.9893 83.5652 79.2083C84.3462 78.4272 84.3462 77.1609 83.5652 76.3798L80.7368 79.2083ZM68.0736 70.86C67.2926 71.6411 67.2926 72.9074 68.0736 73.6884C68.8547 74.4695 70.121 74.4695 70.9021 73.6884L68.0736 70.86ZM72.6194 75.4057C71.8383 76.1868 71.8383 77.4531 72.6194 78.2342C73.4004 79.0152 74.6668 79.0152 75.4478 78.2342L72.6194 75.4057ZM85.5134 68.1686C86.2944 67.3875 86.2944 66.1212 85.5134 65.3402C84.7323 64.5591 83.466 64.5591 82.6849 65.3402L85.5134 68.1686ZM61.4859 57.1289L65.7069 52.9079L62.8785 50.0795L58.6574 54.3005L61.4859 57.1289ZM58.6574 57.1289L71.6453 70.1168L74.4737 67.2883L61.4859 54.3005L58.6574 57.1289ZM71.6453 70.1168L76.191 74.6625L79.0195 71.8341L74.4737 67.2883L71.6453 70.1168ZM76.191 74.6625L80.7368 79.2083L83.5652 76.3798L79.0195 71.8341L76.191 74.6625ZM75.8663 63.0673L71.6453 67.2883L74.4737 70.1168L78.6948 65.8957L75.8663 63.0673ZM71.6453 67.2883L68.0736 70.86L70.9021 73.6884L74.4737 70.1168L71.6453 67.2883ZM75.4478 78.2342L79.0195 74.6625L76.191 71.8341L72.6194 75.4057L75.4478 78.2342ZM79.0195 74.6625L85.5134 68.1686L82.6849 65.3402L76.191 71.8341L79.0195 74.6625ZM75.8663 52.9079C78.6718 55.7133 78.6718 60.2619 75.8663 63.0673L78.6948 65.8957C83.0623 61.5282 83.0623 54.447 78.6948 50.0795L75.8663 52.9079ZM65.7069 52.9079C68.5124 50.1024 73.0609 50.1024 75.8663 52.9079L78.6948 50.0795C74.3272 45.7119 67.246 45.7119 62.8785 50.0795L65.7069 52.9079Z" fill="#8F8F8F"/>
<path d="M68.5 32.9998H36.75C18.1104 32.9998 3 48.1101 3 66.7498V66.7498C3 85.3894 18.1104 100.5 36.75 100.5H40.5V110.5L76 88.9998L40.5 67.4998V76.4998H36.5C31.2533 76.4998 27 72.2465 27 66.9998V66.9998C27 61.7531 31.2533 57.4998 36.5 57.4998H44" stroke="#8F8F8F" stroke-width="4" stroke-linecap="round" stroke-linejoin="round"/>
<path d="M28.6962 72.9998L87.9888 13.7071C88.3794 13.3165 89.0125 13.3165 89.4031 13.7071L123.891 48.1948C124.281 48.5853 124.281 49.2185 123.891 49.609L59.2071 114.293C58.8166 114.683 58.1834 114.683 57.7929 114.293L49 105.5" stroke="#8F8F8F" stroke-width="4"/>
</svg>
