<svg width="80" height="80" viewBox="0 0 80 80" fill="none" xmlns="http://www.w3.org/2000/svg">
<circle cx="46.5" cy="14.5" r="2.5" stroke="#8F8F8F" stroke-width="2"/>
<circle cx="19.5" cy="30.5" r="2.5" stroke="#8F8F8F" stroke-width="2"/>
<circle cx="32.5" cy="54.5" r="2.5" stroke="#8F8F8F" stroke-width="2"/>
<path d="M40.4896 20.8492L39.7744 21.5481H39.7744L40.4896 20.8492ZM52.5104 20.8492L53.2256 21.5481H53.2256L52.5104 20.8492ZM47.2152 26.2681L47.9304 26.967L47.2152 26.2681ZM45.7848 26.2681L45.0696 26.967L45.7848 26.2681ZM51.7952 20.1503L46.5 25.5692L47.9304 26.967L53.2256 21.5481L51.7952 20.1503ZM46.5 25.5692L41.2048 20.1503L39.7744 21.5481L45.0696 26.967L46.5 25.5692ZM41.2048 20.1503C38.2651 17.1419 38.2651 12.255 41.2048 9.24663L39.7744 7.84883C36.0752 11.6344 36.0752 17.7626 39.7744 21.5481L41.2048 20.1503ZM51.7952 9.24663C54.7349 12.255 54.7349 17.1419 51.7952 20.1503L53.2256 21.5481C56.9248 17.7626 56.9248 11.6344 53.2256 7.84883L51.7952 9.24663ZM53.2256 7.84883C49.5139 4.05039 43.4861 4.05039 39.7744 7.84883L41.2048 9.24663C44.132 6.25112 48.868 6.25112 51.7952 9.24663L53.2256 7.84883ZM46.5 25.5692L46.5 25.5692L45.0696 26.967C45.8542 27.7699 47.1458 27.7699 47.9304 26.967L46.5 25.5692Z" fill="#8F8F8F"/>
<path d="M13.4896 36.8492L12.7744 37.5481H12.7744L13.4896 36.8492ZM25.5104 36.8492L26.2256 37.5481H26.2256L25.5104 36.8492ZM20.2152 42.2681L20.9304 42.967L20.2152 42.2681ZM18.7848 42.2681L18.0696 42.967L18.7848 42.2681ZM24.7952 36.1503L19.5 41.5692L20.9304 42.967L26.2256 37.5481L24.7952 36.1503ZM19.5 41.5692L14.2048 36.1503L12.7744 37.5481L18.0696 42.967L19.5 41.5692ZM14.2048 36.1503C11.2651 33.1419 11.2651 28.255 14.2048 25.2466L12.7744 23.8488C9.07521 27.6344 9.07521 33.7626 12.7744 37.5481L14.2048 36.1503ZM24.7952 25.2466C27.7349 28.255 27.7349 33.1419 24.7952 36.1503L26.2256 37.5481C29.9248 33.7626 29.9248 27.6344 26.2256 23.8488L24.7952 25.2466ZM26.2256 23.8488C22.5139 20.0504 16.4861 20.0504 12.7744 23.8488L14.2048 25.2466C17.132 22.2511 21.868 22.2511 24.7952 25.2466L26.2256 23.8488ZM19.5 41.5692L19.5 41.5692L18.0696 42.967C18.8542 43.7699 20.1458 43.7699 20.9304 42.967L19.5 41.5692Z" fill="#8F8F8F"/>
<path d="M26.4896 60.8492L25.7744 61.5481H25.7744L26.4896 60.8492ZM38.5104 60.8492L39.2256 61.5481H39.2256L38.5104 60.8492ZM33.2152 66.2681L33.9304 66.967L33.2152 66.2681ZM31.7848 66.2681L31.0696 66.967L31.7848 66.2681ZM37.7952 60.1503L32.5 65.5692L33.9304 66.967L39.2256 61.5481L37.7952 60.1503ZM32.5 65.5692L27.2048 60.1503L25.7744 61.5481L31.0696 66.967L32.5 65.5692ZM27.2048 60.1503C24.2651 57.1419 24.2651 52.255 27.2048 49.2466L25.7744 47.8488C22.0752 51.6344 22.0752 57.7626 25.7744 61.5481L27.2048 60.1503ZM37.7952 49.2466C40.7349 52.255 40.7349 57.1419 37.7952 60.1503L39.2256 61.5481C42.9248 57.7626 42.9248 51.6344 39.2256 47.8488L37.7952 49.2466ZM39.2256 47.8488C35.5139 44.0504 29.4861 44.0504 25.7744 47.8488L27.2048 49.2466C30.132 46.2511 34.868 46.2511 37.7952 49.2466L39.2256 47.8488ZM32.5 65.5692L32.5 65.5692L31.0696 66.967C31.8542 67.7699 33.1458 67.7699 33.9304 66.967L32.5 65.5692Z" fill="#8F8F8F"/>
<path d="M59 12H71.1059" stroke="#8F8F8F" stroke-width="2" stroke-linecap="round" stroke-linejoin="round"/>
<path d="M45 52H57.1059" stroke="#8F8F8F" stroke-width="2" stroke-linecap="round" stroke-linejoin="round"/>
<path d="M59 16H63.1059" stroke="#8F8F8F" stroke-width="2" stroke-linecap="round" stroke-linejoin="round"/>
<path d="M45 56H49.1059" stroke="#8F8F8F" stroke-width="2" stroke-linecap="round" stroke-linejoin="round"/>
<path d="M52.896 26.6902C58.104 30.3306 61.7985 35.7523 63.2817 41.9309C64.765 48.1096 63.9342 54.6176 60.9464 60.2255C57.9586 65.8334 53.0205 70.1531 47.065 72.3685C41.1095 74.584 34.5489 74.5418 28.6224 72.25C22.6959 69.9581 17.8138 65.5754 14.8983 59.9295C11.9828 54.2836 11.2358 47.7655 12.7984 41.6064C13.1572 40.1921 13.6321 38.8192 14.2144 37.5M41.3169 22.2124C35.9825 21.5263 30.5917 22.5137 25.8755 25" stroke="#8F8F8F" stroke-width="2" stroke-linecap="round" stroke-linejoin="round"/>
</svg>
