<svg width="56" height="72" viewBox="0 0 56 72" fill="none" xmlns="http://www.w3.org/2000/svg">
<path d="M6.38037 64.6682H54.3205" stroke="#8F8F8F" stroke-width="2" stroke-linecap="round" stroke-linejoin="round"/>
<path d="M38.6279 53.0107H50.7339" stroke="#8F8F8F" stroke-width="2" stroke-linecap="round" stroke-linejoin="round"/>
<path d="M40.4209 47.6304H50.7334" stroke="#8F8F8F" stroke-width="2" stroke-linecap="round" stroke-linejoin="round"/>
<path d="M42 41.8015H50.7333" stroke="#8F8F8F" stroke-width="2" stroke-linecap="round" stroke-linejoin="round"/>
<path d="M44 35.9727H50.7335" stroke="#8F8F8F" stroke-width="2" stroke-linecap="round" stroke-linejoin="round"/>
<path d="M45.353 30.5923H50.7334" stroke="#8F8F8F" stroke-width="2" stroke-linecap="round" stroke-linejoin="round"/>
<path d="M47.1465 25.2119H50.7334" stroke="#8F8F8F" stroke-width="2" stroke-linecap="round" stroke-linejoin="round"/>
<path d="M26.5217 13.5543L27.3624 14.0958L27.3629 14.0951L26.5217 13.5543ZM54.3205 70.0487V71.0487C54.8728 71.0487 55.3205 70.601 55.3205 70.0487H54.3205ZM54.3205 13.5543H55.3205C55.3205 13.002 54.8728 12.5543 54.3205 12.5543V13.5543ZM34.5923 1L34.934 0.0602066C34.4949 -0.0994693 34.0038 0.0662106 33.7511 0.459242L34.5923 1ZM22.4864 59.2879L21.4905 59.1973C21.4634 59.4954 21.5712 59.7899 21.7843 60C21.9974 60.2101 22.2934 60.3137 22.591 60.2824L22.4864 59.2879ZM9.48368 40.008L8.64297 39.4666C8.47853 39.7219 8.43902 40.0381 8.53558 40.326C8.63214 40.6139 8.85431 40.8424 9.13943 40.9469L9.48368 40.008ZM38.6276 53.0107L39.2043 53.8277C39.3882 53.6979 39.5229 53.5099 39.5866 53.2941L38.6276 53.0107ZM51.6303 8.62226L52.5951 8.88538C52.7362 8.36803 52.4441 7.83148 51.933 7.66917C51.4219 7.50686 50.8738 7.77656 50.6905 8.28052L51.6303 8.62226ZM26.5217 12.5543H7V14.5543H26.5217V12.5543ZM0 19.5543V64.0487H2V19.5543H0ZM7 71.0487H54.3205V69.0487H7V71.0487ZM55.3205 70.0487V13.5543H53.3205V70.0487H55.3205ZM54.3205 12.5543H50.2852V14.5543H54.3205V12.5543ZM27.3629 14.0951L35.4335 1.54076L33.7511 0.459242L25.6805 13.0136L27.3629 14.0951ZM34.2506 1.93979C35.7603 2.48877 37.86 3.73214 39.2304 5.62228C40.559 7.45493 41.2402 9.93493 39.941 13.1829L41.7979 13.9257C43.3683 9.9998 42.5549 6.80047 40.8496 4.44835C39.186 2.15372 36.7124 0.706878 34.934 0.0602066L34.2506 1.93979ZM39.941 13.1829C37.0719 20.3556 26.491 46.6586 21.5587 58.9145L23.4141 59.6612C28.3459 47.4064 38.9279 21.1008 41.7979 13.9257L39.941 13.1829ZM23.4823 59.3784C23.9592 54.1323 21.1308 43.2136 9.82794 39.0692L9.13943 40.9469C19.3582 44.6938 21.9103 54.5793 21.4905 59.1973L23.4823 59.3784ZM10.3244 40.5495L27.3624 14.0958L25.681 13.0128L8.64297 39.4666L10.3244 40.5495ZM22.591 60.2824C25.5549 59.9704 32.9336 58.2541 39.2043 53.8277L38.0509 52.1938C32.126 56.376 25.0972 58.0075 22.3817 58.2934L22.591 60.2824ZM39.5866 53.2941L51.2442 13.8377L49.3262 13.271L37.6686 52.7274L39.5866 53.2941ZM51.25 13.8174L52.5951 8.88538L50.6655 8.35914L49.3204 13.2912L51.25 13.8174ZM50.6905 8.28052C50.2744 9.42469 47.7463 12.5543 40.8695 12.5543V14.5543C48.3404 14.5543 51.7905 11.1079 52.5701 8.964L50.6905 8.28052ZM0 64.0487C0 67.9147 3.13401 71.0487 7 71.0487V69.0487C4.23858 69.0487 2 66.8101 2 64.0487H0ZM7 12.5543C3.13401 12.5543 0 15.6883 0 19.5543H2C2 16.7929 4.23858 14.5543 7 14.5543V12.5543Z" fill="#8F8F8F"/>
<path d="M54.3205 60.2878C54.8728 60.2878 55.3205 59.8401 55.3205 59.2878C55.3205 58.7356 54.8728 58.2878 54.3205 58.2878V60.2878ZM54.3205 58.2878H6.71215V60.2878H54.3205V58.2878ZM6.71215 58.2878C3.00513 58.2878 0 61.293 0 65H2C2 62.3975 4.1097 60.2878 6.71215 60.2878V58.2878Z" fill="#8F8F8F"/>
</svg>
