<svg width="80" height="80" viewBox="0 0 80 80" fill="none" xmlns="http://www.w3.org/2000/svg">
<path d="M17.5 11.806V15.25C17.5 16.2165 18.2835 17 19.25 17C20.2165 17 21 17.7835 21 18.75V22C21 23.1046 20.1046 24 19 24H14.5C13.3954 24 12.5 23.1046 12.5 22V18.5V16.265C12.5 14.1745 13.3305 12.1695 14.8087 10.6913C15.8019 9.69812 17.5 10.4015 17.5 11.806Z" stroke="#8F8F8F" stroke-width="2"/>
<path d="M62 68.194L62 64.75C62 63.7835 61.2165 63 60.25 63C59.2835 63 58.5 62.2165 58.5 61.25L58.5 58C58.5 56.8954 59.3954 56 60.5 56L65 56C66.1046 56 67 56.8954 67 58L67 61.5L67 63.735C67 65.8255 66.1695 67.8305 64.6913 69.3087C63.6981 70.3019 62 69.5985 62 68.194Z" stroke="#8F8F8F" stroke-width="2"/>
<path d="M29 11.806V15.25C29 16.2165 29.7835 17 30.75 17C31.7165 17 32.5 17.7835 32.5 18.75V22C32.5 23.1046 31.6046 24 30.5 24H26C24.8954 24 24 23.1046 24 22V18.5V16.265C24 14.1745 24.8305 12.1695 26.3087 10.6913C27.3019 9.69812 29 10.4015 29 11.806Z" stroke="#8F8F8F" stroke-width="2"/>
<path d="M50.5 68.194L50.5 64.75C50.5 63.7835 49.7165 63 48.75 63C47.7835 63 47 62.2165 47 61.25L47 58C47 56.8954 47.8954 56 49 56L53.5 56C54.6046 56 55.5 56.8954 55.5 58L55.5 61.5L55.5 63.735C55.5 65.8255 54.6695 67.8305 53.1913 69.3087C52.1981 70.3019 50.5 69.5985 50.5 68.194Z" stroke="#8F8F8F" stroke-width="2"/>
<path d="M12.5 20V20C9.46243 20 7 22.4624 7 25.5V55C7 58.3137 9.68629 61 13 61H19.8232C20.5495 61 21.2188 61.3938 21.5715 62.0287L24.2517 66.853C25.0137 68.2247 26.9863 68.2247 27.7483 66.853L30.4285 62.0287C30.7812 61.3938 31.4505 61 32.1768 61H47M67 61V61C70.3137 61 73 58.3137 73 55V26C73 22.6863 70.3137 20 67 20H32.5" stroke="#8F8F8F" stroke-width="2"/>
<path d="M18 31H33.1059" stroke="#8F8F8F" stroke-width="2" stroke-linecap="round" stroke-linejoin="round"/>
<path d="M62.106 43L47 43" stroke="#8F8F8F" stroke-width="2" stroke-linecap="round" stroke-linejoin="round"/>
<path d="M18 37H62.1059" stroke="#8F8F8F" stroke-width="2" stroke-linecap="round" stroke-linejoin="round"/>
<path d="M18 49H40.1059" stroke="#8F8F8F" stroke-width="2" stroke-linecap="round" stroke-linejoin="round"/>
<path d="M38 31H62.1059" stroke="#8F8F8F" stroke-width="2" stroke-linecap="round" stroke-linejoin="round"/>
<path d="M42.106 43L18 43" stroke="#8F8F8F" stroke-width="2" stroke-linecap="round" stroke-linejoin="round"/>
</svg>
