<svg width="30" height="30" viewBox="0 0 30 30" fill="none" xmlns="http://www.w3.org/2000/svg">
<g clip-path="url(#clip0_1180_12099)">
<path d="M29.9937 11.0957C29.9927 11.0759 29.9904 11.0562 29.9869 11.0366C29.9826 11.0158 29.9767 10.9954 29.969 10.9757C29.9617 10.9531 29.9526 10.9311 29.9419 10.9099C29.9388 10.8993 29.9351 10.889 29.9308 10.8789C29.9274 10.8726 29.9207 10.8697 29.9168 10.8634C29.89 10.8281 29.8597 10.7957 29.8263 10.7666C29.812 10.7533 29.7968 10.741 29.7808 10.7299C29.7745 10.726 29.7716 10.7192 29.7653 10.7158L15.2499 2.00658C15.0966 1.91447 14.9049 1.91447 14.7515 2.00658L0.236118 10.7158C0.230311 10.7192 0.227408 10.7255 0.221602 10.7294C0.204486 10.7407 0.188338 10.7533 0.173217 10.7671C0.154166 10.7835 0.136385 10.8013 0.119994 10.8204C0.106809 10.8347 0.0945317 10.8499 0.0832218 10.8658C0.079351 10.8721 0.0725771 10.875 0.0691902 10.8813C0.0648961 10.8914 0.0612067 10.9018 0.0580617 10.9123C0.0474171 10.9335 0.0383449 10.9555 0.0309662 10.9781C0.0233456 10.9979 0.017358 11.0182 0.0130639 11.0391C0.00961647 11.0586 0.00731819 11.0783 0.00629002 11.0981C0.00629002 11.1092 0 11.1189 0 11.1305V26.6112C0 27.4129 0.649868 28.0627 1.45154 28.0627H28.5485C29.3501 28.0627 30 27.4129 30 26.6112V11.1281C30 11.1165 29.9942 11.1068 29.9937 11.0957ZM15.0007 2.98299L28.5756 11.1281L21.0488 15.6443L15.2499 12.165C15.0966 12.0729 14.9049 12.0729 14.7515 12.165L8.95263 15.6443L1.4259 11.1281L15.0007 2.98299ZM0.969147 11.9826L8.01203 16.2085L0.969147 20.4344V11.9826ZM29.0323 26.6112C29.0323 26.8784 28.8157 27.095 28.5485 27.095H1.45299C1.18579 27.095 0.969147 26.8784 0.969147 26.6112V21.5627L15.0007 13.1438L29.0323 21.5627V26.6112ZM29.0323 20.4344L21.9894 16.2085L29.0323 11.9826V20.4344Z" fill="#8F8F8F"/>
</g>
<defs>
<clipPath id="clip0_1180_12099">
<rect width="30" height="30" fill="white"/>
</clipPath>
</defs>
</svg>
