<svg width="40" height="40" viewBox="0 0 40 40" fill="none" xmlns="http://www.w3.org/2000/svg">
<g clip-path="url(#clip0_1177_11881)">
<path d="M39.9061 8.89172C39.702 8.37016 39.1991 8.02734 38.6395 8.02734H29.0704V10.7484H35.1655L31.44 14.1951H22.3584V16.9162H31.9728C32.3152 16.9162 32.6454 16.787 32.8966 16.5543L39.5632 10.3866C39.9741 10.0064 40.1102 9.41282 39.9061 8.89172Z" fill="#8F8F8F"/>
<path d="M16.553 10.7484V8.02734H8.02696C7.68453 8.02734 7.35438 8.15656 7.10313 8.38922L0.436551 14.557C0.0256912 14.9371 -0.110403 15.5307 0.09366 16.0518C0.297723 16.5734 0.800224 16.9162 1.3603 16.9162H10.4759V14.1951H4.83469L8.55985 10.7484H16.553V10.7484Z" fill="#8F8F8F"/>
<path d="M10.204 19.4563H1.36055C0.609064 19.4563 0 20.0654 0 20.8168C0 21.5682 0.609064 22.1773 1.36055 22.1773H10.204C10.9555 22.1773 11.5646 21.5682 11.5646 20.8168C11.5646 20.0653 10.9555 19.4563 10.204 19.4563Z" fill="#8F8F8F"/>
<path d="M39.7078 14.713C39.242 14.1225 38.3872 14.0218 37.7967 14.4876L31.5006 19.4563H22.4943C21.7429 19.4563 21.1338 20.0654 21.1338 20.8169C21.1338 21.5683 21.7429 22.1774 22.4943 22.1774H31.9727C32.2788 22.1774 32.5755 22.074 32.8158 21.8849L39.4823 16.6237C40.0724 16.1583 40.1731 15.303 39.7078 14.713Z" fill="#8F8F8F"/>
<path d="M10.204 24.7618H1.36055C0.609064 24.7618 0 25.3709 0 26.1224C0 26.8739 0.609064 27.4829 1.36055 27.4829H10.204C10.9555 27.4829 11.5646 26.8739 11.5646 26.1224C11.5646 25.3709 10.9555 24.7618 10.204 24.7618Z" fill="#8F8F8F"/>
<path d="M39.7428 20.5197C39.3039 19.9102 38.4544 19.7723 37.8435 20.2117L31.5334 24.7618H22.5852C21.8337 24.7618 21.2246 25.3709 21.2246 26.1224C21.2246 26.8739 21.8337 27.4829 22.5852 27.4829H31.9728C32.2585 27.4829 32.537 27.3932 32.7683 27.2262L39.4349 22.419C40.0444 21.9796 40.1818 21.1292 39.7428 20.5197Z" fill="#8F8F8F"/>
<path d="M39.7779 26.2852C39.367 25.6562 38.5235 25.4784 37.8949 25.8902L31.5676 30.0226H1.36055C0.609064 30.0226 0 30.6316 0 31.3831C0 32.1346 0.609064 32.7436 1.36055 32.7436H31.9725C32.2369 32.7436 32.4949 32.667 32.7162 32.5223L39.3828 28.1682C40.0119 27.7573 40.1887 26.9147 39.7779 26.2852Z" fill="#8F8F8F"/>
<path d="M30.7893 8.11893C30.5848 7.5983 30.0823 7.25635 29.5232 7.25635H17.6412C17.2974 7.25635 16.9663 7.3865 16.7147 7.62096L9.54922 14.2875C9.27258 14.5446 9.11523 14.9057 9.11523 15.2835V30.9296H11.8363V15.8762L18.1764 9.97737H26.0634L21.4308 14.2875C21.1546 14.5446 20.9973 14.9057 20.9973 15.2835V30.9296H23.7184V15.8762L30.4503 9.61276C30.8592 9.23229 30.9939 8.63955 30.7893 8.11893Z" fill="#8F8F8F"/>
</g>
<defs>
<clipPath id="clip0_1177_11881">
<rect width="40" height="40" fill="white"/>
</clipPath>
</defs>
</svg>
