<svg width="30" height="30" viewBox="0 0 30 30" fill="none" xmlns="http://www.w3.org/2000/svg">
<g clip-path="url(#clip0_1180_12091)">
<path d="M29.2128 23.1433L23.1407 19.0939C22.3701 18.5842 21.3372 18.7519 20.7675 19.4793L18.9988 21.7535C18.7715 22.0532 18.3583 22.1402 18.0294 21.9575L17.693 21.772C16.5776 21.1641 15.1899 20.4072 12.3938 17.6101C9.59768 14.813 8.83929 13.4242 8.23136 12.3109L8.04687 11.9745C7.86169 11.6457 7.94698 11.2307 8.24682 11.0016L10.5195 9.2334C11.2466 8.66366 11.4146 7.63104 10.9054 6.86023L6.85601 0.788129C6.3342 0.00320626 5.28728 -0.232423 4.47945 0.253189L1.94032 1.77845C1.14251 2.24748 0.557184 3.0071 0.307084 3.89812C-0.607253 7.22961 0.0805938 12.9793 8.55035 21.45C15.2879 28.187 20.3036 29.9988 23.7511 29.9988C24.5445 30.0022 25.3349 29.8989 26.1008 29.6918C26.992 29.442 27.7517 28.8566 28.2205 28.0586L29.7472 25.521C30.2336 24.713 29.998 23.6654 29.2128 23.1433ZM28.8858 25.008L27.3625 27.5471C27.026 28.1232 26.4795 28.5467 25.8377 28.729C22.7622 29.5734 17.389 28.874 9.25771 20.7427C1.1264 12.6114 0.427066 7.23864 1.27145 4.16263C1.454 3.52007 1.87804 2.97294 2.45475 2.63584L4.99389 1.11257C5.3444 0.901667 5.79879 1.0039 6.02522 1.34451L8.22491 4.64701L10.0712 7.41609C10.2923 7.75043 10.2196 8.19855 9.90419 8.44596L7.63104 10.2142C6.93926 10.7431 6.74171 11.7002 7.16763 12.4599L7.34813 12.7878C7.98706 13.9596 8.78141 15.4174 11.6815 18.317C14.5816 21.2166 16.0389 22.011 17.2102 22.6498L17.5386 22.8308C18.2981 23.2567 19.2553 23.0592 19.7843 22.3674L21.5525 20.0942C21.7999 19.779 22.2479 19.7064 22.5824 19.9273L28.6539 23.9767C28.9948 24.2029 29.097 24.6576 28.8858 25.008Z" fill="#8F8F8F"/>
<path d="M16.998 5.00274C21.6895 5.00796 25.4914 8.80995 25.4967 13.5015C25.4967 13.7776 25.7205 14.0014 25.9966 14.0014C26.2727 14.0014 26.4965 13.7776 26.4965 13.5015C26.4907 8.25796 22.2415 4.00867 16.998 4.00293C16.7218 4.00293 16.498 4.22672 16.498 4.50284C16.498 4.77895 16.7218 5.00274 16.998 5.00274Z" fill="#8F8F8F"/>
<path d="M16.998 8.00225C20.0336 8.00583 22.4936 10.4658 22.4972 13.5015C22.4972 13.7776 22.721 14.0014 22.9971 14.0014C23.2732 14.0014 23.497 13.7776 23.497 13.5015C23.4928 9.91383 20.5855 7.00654 16.998 7.00244C16.7218 7.00244 16.498 7.22624 16.498 7.50235C16.498 7.77846 16.7218 8.00225 16.998 8.00225Z" fill="#8F8F8F"/>
<path d="M16.998 11.0018C18.3777 11.0034 19.4959 12.1216 19.4976 13.5014C19.4976 13.7775 19.7215 14.0013 19.9975 14.0013C20.2736 14.0013 20.4974 13.7775 20.4974 13.5014C20.4952 11.5696 18.9297 10.0041 16.998 10.002C16.7218 10.002 16.498 10.2257 16.498 10.5019C16.498 10.778 16.7218 11.0018 16.998 11.0018Z" fill="#8F8F8F"/>
</g>
<defs>
<clipPath id="clip0_1180_12091">
<rect width="30" height="30" fill="white"/>
</clipPath>
</defs>
</svg>
