<svg width="30" height="30" viewBox="0 0 30 30" fill="none" xmlns="http://www.w3.org/2000/svg">
<mask id="path-1-inside-1_1180_12121" fill="white">
<path d="M6.28231 3.61043C11.0962 -1.20348 18.9011 -1.20348 23.715 3.61043C28.529 8.42435 28.529 16.2292 23.715 21.0432L14.9987 29.7595L6.28231 21.0432C1.4684 16.2293 1.4684 8.42435 6.28231 3.61043Z"/>
</mask>
<path d="M14.9987 29.7595L14.2916 30.4666L14.9987 31.1737L15.7058 30.4666L14.9987 29.7595ZM6.28231 21.0432L6.98942 20.3361L6.28231 21.0432ZM23.715 21.0432L23.0079 20.3361L23.715 21.0432ZM23.0079 20.3361L14.2916 29.0524L15.7058 30.4666L24.4221 21.7503L23.0079 20.3361ZM15.7058 29.0524L6.98942 20.3361L5.57521 21.7503L14.2916 30.4666L15.7058 29.0524ZM6.98942 20.3361C2.56603 15.9127 2.56603 8.74093 6.98942 4.31754L5.5752 2.90333C0.370764 8.10777 0.370767 16.5458 5.57521 21.7503L6.98942 20.3361ZM23.0079 4.31754C27.4313 8.74093 27.4313 15.9127 23.0079 20.3361L24.4221 21.7503C29.6266 16.5458 29.6266 8.10777 24.4221 2.90333L23.0079 4.31754ZM24.4221 2.90333C19.2177 -2.30111 10.7796 -2.30111 5.5752 2.90333L6.98942 4.31754C11.4128 -0.105847 18.5845 -0.105847 23.0079 4.31754L24.4221 2.90333Z" fill="#8F8F8F" mask="url(#path-1-inside-1_1180_12121)"/>
<circle cx="15.0006" cy="12.3268" r="4.86392" stroke="#8F8F8F"/>
</svg>
