<svg width="22" height="22" viewBox="0 0 22 22" fill="none" xmlns="http://www.w3.org/2000/svg">
<path d="M16.1023 14.1739C17.1759 12.7077 17.8181 10.9068 17.8181 8.95449C17.8181 4.06723 13.8417 0.0908203 8.95451 0.0908203C4.06728 0.0908203 0.0909348 4.06723 0.0909348 8.95449C0.0909348 13.8418 4.06732 17.8182 8.95455 17.8182C10.9069 17.8182 12.708 17.1759 14.1741 16.1022L19.9809 21.909L21.9091 19.9807C21.9091 19.9807 16.1023 14.1739 16.1023 14.1739ZM8.95455 15.0909C5.57077 15.0909 2.81822 12.3383 2.81822 8.95449C2.81822 5.57068 5.57077 2.81812 8.95455 2.81812C12.3383 2.81812 15.0909 5.57068 15.0909 8.95449C15.0909 12.3383 12.3383 15.0909 8.95455 15.0909Z" fill="black"/>
</svg>
