<svg width="24" height="24" viewBox="0 0 24 24" fill="none" xmlns="http://www.w3.org/2000/svg">
<path d="M1 23V24C0.725154 24 0.462424 23.8869 0.273546 23.6872C0.0846681 23.4876 -0.0137061 23.219 0.00153965 22.9445L1 23ZM23 23L23.9985 22.9445C24.0137 23.219 23.9153 23.4876 23.7265 23.6872C23.5376 23.8869 23.2748 24 23 24V23ZM22 5V4C22.5307 4 22.969 4.41461 22.9985 4.94453L22 5ZM2 5L1.00154 4.94453C1.03098 4.41461 1.46927 4 2 4V5ZM1 22H23V24H1V22ZM22.0015 23.0555L21.0015 5.05547L22.9985 4.94453L23.9985 22.9445L22.0015 23.0555ZM22 6H2V4H22V6ZM2.99846 5.05547L1.99846 23.0555L0.00153965 22.9445L1.00154 4.94453L2.99846 5.05547Z" fill="black"/>
<path d="M14 5C14 2.79086 12.2091 1 10 1C7.79086 1 6 2.79086 6 5" stroke="black" stroke-width="2"/>
<path d="M18 5C18 2.79086 16.2091 1 14 1C11.7909 1 10 2.79086 10 5" stroke="black" stroke-width="2"/>
</svg>
