<svg width="14" height="17" viewBox="0 0 14 17" fill="none" xmlns="http://www.w3.org/2000/svg">
<mask id="path-1-inside-1_908_8916" fill="white">
<path fill-rule="evenodd" clip-rule="evenodd" d="M11.714 1.95262C9.11053 -0.650874 4.88943 -0.650874 2.28594 1.95262C-0.317561 4.55612 -0.317562 8.77722 2.28593 11.3807L6.99998 16.0948L11.714 11.3807C14.3175 8.77722 14.3175 4.55612 11.714 1.95262ZM6.99998 7.99981C7.73636 7.99981 8.33331 7.40285 8.33331 6.66647C8.33331 5.93009 7.73636 5.33314 6.99998 5.33314C6.2636 5.33314 5.66665 5.93009 5.66665 6.66647C5.66665 7.40285 6.2636 7.99981 6.99998 7.99981Z"/>
</mask>
<path d="M2.28594 1.95262L2.99304 2.65973V2.65973L2.28594 1.95262ZM2.28593 11.3807L2.99304 10.6736L2.28593 11.3807ZM6.99998 16.0948L6.29287 16.8019L6.99998 17.509L7.70709 16.8019L6.99998 16.0948ZM2.99304 2.65973C5.20601 0.446757 8.79395 0.446757 11.0069 2.65973L12.4211 1.24551C9.42711 -1.7485 4.57285 -1.7485 1.57883 1.24551L2.99304 2.65973ZM2.99304 10.6736C0.78007 8.46063 0.78007 4.8727 2.99304 2.65973L1.57883 1.24551C-1.41519 4.23953 -1.41519 9.0938 1.57883 12.0878L2.99304 10.6736ZM7.70709 15.3877L2.99304 10.6736L1.57883 12.0878L6.29287 16.8019L7.70709 15.3877ZM11.0069 10.6736L6.29287 15.3877L7.70709 16.8019L12.4211 12.0878L11.0069 10.6736ZM11.0069 2.65973C13.2199 4.8727 13.2199 8.46063 11.0069 10.6736L12.4211 12.0878C15.4152 9.0938 15.4152 4.23953 12.4211 1.24551L11.0069 2.65973ZM7.33331 6.66647C7.33331 6.85057 7.18407 6.99981 6.99998 6.99981V8.99981C8.28864 8.99981 9.33331 7.95514 9.33331 6.66647H7.33331ZM6.99998 6.33314C7.18407 6.33314 7.33331 6.48238 7.33331 6.66647H9.33331C9.33331 5.37781 8.28864 4.33314 6.99998 4.33314V6.33314ZM6.66665 6.66647C6.66665 6.48238 6.81589 6.33314 6.99998 6.33314V4.33314C5.71132 4.33314 4.66665 5.37781 4.66665 6.66647H6.66665ZM6.99998 6.99981C6.81588 6.99981 6.66665 6.85057 6.66665 6.66647H4.66665C4.66665 7.95514 5.71132 8.99981 6.99998 8.99981V6.99981Z" fill="black" mask="url(#path-1-inside-1_908_8916)"/>
</svg>
