<svg width="119" height="118" viewBox="0 0 119 118" fill="none" xmlns="http://www.w3.org/2000/svg">
<path d="M23 54.4204V68.4204L31 64.4204L39.5 68.4204V54.4204M23 54.4204H39.5M23 54.4204H2V98.9204M39.5 54.4204H60V66.4204M34.5 98.9204H60V66.4204M11.5 98.9204H2M2 98.9204V107.92H11.5M34.5 107.92H60M85 107.92H93V98.9204M93 98.9204H85M93 98.9204L85 66.4204H60" stroke="#8F8F8F" stroke-width="4" stroke-linecap="round" stroke-linejoin="round"/>
<circle cx="23" cy="103.92" r="12" stroke="#8F8F8F" stroke-width="4"/>
<circle cx="72" cy="103.92" r="12" stroke="#8F8F8F" stroke-width="4"/>
<path d="M39.2656 17.0575C45.4707 13.8262 52.5224 12 60 12C60.9252 12 61.8438 12.028 62.7551 12.0831M22.1422 32.6897C18.0546 39.0433 15.9475 45.9924 15.5 54M97.6531 81.7407C95.6703 84.7669 93.632 87.0397 91 89.5M104.769 61.6552C104.922 60.1434 105 58.6096 105 57.0575C105 48.4681 102.6 40.44 98.4339 33.6092" stroke="#8F8F8F" stroke-width="4" stroke-linecap="round" stroke-linejoin="round"/>
<circle cx="23" cy="103.92" r="4" stroke="#8F8F8F" stroke-width="4"/>
<ellipse cx="30.5" cy="24" rx="3.5" ry="4" stroke="#8F8F8F" stroke-width="4"/>
<ellipse cx="106" cy="72.5" rx="4" ry="3.5" stroke="#8F8F8F" stroke-width="4"/>
<circle cx="81.5" cy="22.5" r="6.5" stroke="#8F8F8F" stroke-width="4"/>
<circle cx="72" cy="103.92" r="4" stroke="#8F8F8F" stroke-width="4"/>
<path d="M30.5 40L29.1056 41.4338L30.5 42.7898L31.8944 41.4338L30.5 40ZM37.2374 30.6581L29.1056 38.5662L31.8944 41.4338L40.0261 33.5257L37.2374 30.6581ZM31.8944 38.5662L23.7626 30.6581L20.9739 33.5257L29.1056 41.4338L31.8944 38.5662ZM23.7626 30.6581C20.0791 27.0759 20.0791 21.2917 23.7626 17.7094L20.9739 14.8419C15.6754 19.9947 15.6754 28.3728 20.9739 33.5257L23.7626 30.6581ZM37.2374 17.7094C40.9209 21.2917 40.9209 27.0759 37.2374 30.6581L40.0261 33.5257C45.3246 28.3728 45.3246 19.9947 40.0261 14.8419L37.2374 17.7094ZM40.0261 14.8419C34.7588 9.71938 26.2412 9.71938 20.9739 14.8419L23.7626 17.7094C27.4774 14.0969 33.5226 14.0969 37.2374 17.7094L40.0261 14.8419Z" fill="#8F8F8F"/>
<path d="M106 88L104.601 89.4291L106 90.799L107.399 89.4291L106 88ZM112.379 78.9557L104.601 86.5709L107.399 89.4291L115.177 81.8139L112.379 78.9557ZM107.399 86.5709L99.621 78.9557L96.8227 81.8139L104.601 89.4291L107.399 86.5709ZM99.621 78.9557C96.1263 75.5342 96.1263 70.0049 99.621 66.5834L96.8227 63.7252C91.7258 68.7153 91.7258 76.8238 96.8227 81.8139L99.621 78.9557ZM112.379 66.5834C115.874 70.0049 115.874 75.5342 112.379 78.9557L115.177 81.8139C120.274 76.8238 120.274 68.7153 115.177 63.7252L112.379 66.5834ZM115.177 63.7252C110.104 58.7583 101.896 58.7583 96.8227 63.7252L99.621 66.5834C103.139 63.1389 108.861 63.1389 112.379 66.5834L115.177 63.7252Z" fill="#8F8F8F"/>
<path d="M81 51L79.5754 52.4038L81 53.8495L82.4246 52.4038L81 51ZM66.8579 36.6482L65.4333 38.052L66.8579 36.6482ZM95.1421 36.6482L96.5667 38.052L95.1421 36.6482ZM93.7176 35.2445L79.5754 49.5962L82.4246 52.4038L96.5667 38.052L93.7176 35.2445ZM82.4246 49.5962L68.2824 35.2445L65.4333 38.052L79.5754 52.4038L82.4246 49.5962ZM68.2824 35.2445C61.2392 28.0968 61.2392 16.4961 68.2824 9.34847L65.4333 6.54093C56.8556 15.2458 56.8556 29.3471 65.4333 38.052L68.2824 35.2445ZM93.7176 9.34847C100.761 16.4961 100.761 28.0968 93.7176 35.2445L96.5667 38.052C105.144 29.3471 105.144 15.2458 96.5667 6.54093L93.7176 9.34847ZM96.5667 6.54093C87.9729 -2.18031 74.0271 -2.18031 65.4333 6.54093L68.2824 9.34847C75.3096 2.21718 86.6904 2.21718 93.7176 9.34847L96.5667 6.54093Z" fill="#8F8F8F"/>
</svg>
