<svg width="128" height="128" viewBox="0 0 128 128" fill="none" xmlns="http://www.w3.org/2000/svg">
<path d="M64.1757 11L65.4173 9.43206C64.6898 8.85598 63.6616 8.85598 62.9341 9.43206L64.1757 11ZM37.5 19.9217V17.9217C36.432 17.9217 35.5524 18.761 35.5022 19.8279L37.5 19.9217ZM64.1757 68L63.4132 69.8489C63.9016 70.0504 64.4499 70.0504 64.9383 69.8489L64.1757 68ZM91.2159 19.9217L93.2137 19.8279C93.1636 18.761 92.284 17.9217 91.2159 17.9217V19.9217ZM62.9341 9.43206C57.9603 13.3707 54.7776 15.4108 51.343 16.5338C47.8869 17.6639 44.0104 17.9217 37.5 17.9217V21.9217C44.0091 21.9217 48.4629 21.684 52.5861 20.3357C56.7308 18.9805 60.3762 16.5598 65.4173 12.5679L62.9341 9.43206ZM35.5022 19.8279C34.9972 30.5756 35.6372 40.516 39.6368 49.082C43.6777 57.7365 51.0261 64.7401 63.4132 69.8489L64.9383 66.1511C53.2898 61.3469 46.7995 54.9679 43.2612 47.3897C39.6815 39.7231 39.0014 30.5809 39.4978 20.0156L35.5022 19.8279ZM62.9341 12.5679C67.9911 16.5724 71.7266 18.988 75.9608 20.34C80.1674 21.6832 84.7041 21.9217 91.2159 21.9217V17.9217C84.7084 17.9217 80.7324 17.6646 77.1775 16.5295C73.6502 15.4033 70.3752 13.358 65.4173 9.43206L62.9341 12.5679ZM89.2181 20.0156C89.7139 30.5655 88.9462 39.7064 85.2804 47.3731C81.6529 54.9596 75.0673 61.3445 63.4132 66.1511L64.9383 69.8489C77.3197 64.7424 84.7549 57.7448 88.8891 49.0986C92.9849 40.5327 93.7195 30.5911 93.2137 19.8279L89.2181 20.0156Z" fill="#8F8F8F"/>
<path d="M50 36.85L62.0896 49L80 31" stroke="#8F8F8F" stroke-width="4" stroke-linecap="round" stroke-linejoin="round"/>
<path d="M18 98H49.5" stroke="#8F8F8F" stroke-width="4" stroke-linecap="round" stroke-linejoin="round"/>
<path d="M68 98H84.5" stroke="#8F8F8F" stroke-width="4" stroke-linecap="round" stroke-linejoin="round"/>
<path d="M18 104H49.5" stroke="#8F8F8F" stroke-width="4" stroke-linecap="round" stroke-linejoin="round"/>
<path d="M39 44H14C9.58172 44 6 47.5817 6 52V110C6 114.418 9.58172 118 14 118H114C118.418 118 122 114.418 122 110V52C122 47.5817 118.418 44 114 44H90" stroke="#8F8F8F" stroke-width="4"/>
<rect x="18" y="81" width="16" height="6" rx="3" stroke="#8F8F8F" stroke-width="4"/>
<rect x="43" y="81" width="17" height="6" rx="3" stroke="#8F8F8F" stroke-width="4"/>
<rect x="68" y="81" width="17" height="6" rx="3" stroke="#8F8F8F" stroke-width="4"/>
<rect x="94" y="81" width="16" height="6" rx="3" stroke="#8F8F8F" stroke-width="4"/>
</svg>
