<svg width="128" height="128" viewBox="0 0 128 128" fill="none" xmlns="http://www.w3.org/2000/svg">
<path d="M110.085 60.1633C111.521 62.2244 111.521 64.9617 110.085 67.0227L102.28 78.2271C101.785 78.9381 101.449 79.7479 101.297 80.6008L98.8934 94.0429C98.4513 96.5155 96.5157 98.4511 94.043 98.8932L80.601 101.297C79.748 101.449 78.9382 101.784 78.2273 102.28L67.0229 110.085C64.9618 111.521 62.2245 111.521 60.1635 110.085L48.9591 102.28C48.2481 101.784 47.4383 101.449 46.5854 101.297L33.1433 98.8932C30.6707 98.4511 28.7351 96.5155 28.293 94.0429L25.8897 80.6008C25.7372 79.7479 25.4017 78.9381 24.9064 78.2271L17.1009 67.0227C15.665 64.9617 15.665 62.2244 17.1009 60.1633L24.9064 48.9589C25.4017 48.248 25.7372 47.4382 25.8897 46.5852L28.293 33.1432C28.7351 30.6705 30.6707 28.7349 33.1433 28.2928L46.5854 25.8895C47.4383 25.737 48.2481 25.4016 48.9591 24.9063L60.1635 17.1007C62.2245 15.6649 64.9618 15.6649 67.0229 17.1007L78.2273 24.9063C78.9382 25.4016 79.748 25.737 80.601 25.8895L94.043 28.2928C96.5157 28.7349 98.4513 30.6705 98.8934 33.1432L101.297 46.5852C101.449 47.4382 101.785 48.248 102.28 48.9589L110.085 60.1633Z" stroke="#8F8F8F" stroke-width="4"/>
<circle cx="63.5932" cy="63.5931" r="25.6507" stroke="#8F8F8F" stroke-width="4"/>
<path d="M56.3335 73.6925C55.229 73.6925 54.3335 74.5879 54.3335 75.6925C54.3335 76.797 55.229 77.6925 56.3335 77.6925V73.6925ZM56.3335 61.1732H54.3335C54.3335 62.2777 55.229 63.1732 56.3335 63.1732V61.1732ZM73.2727 53.4937C74.3773 53.4937 75.2727 52.5982 75.2727 51.4937C75.2727 50.3891 74.3773 49.4937 73.2727 49.4937V53.4937ZM56.3335 51.4937V49.4937C55.229 49.4937 54.3335 50.3891 54.3335 51.4937H56.3335ZM58.3335 61.1732V51.4937H54.3335V61.1732H58.3335ZM56.3335 53.4937H73.2727V49.4937H56.3335V53.4937ZM66.0131 59.1732H56.3335V63.1732H66.0131V59.1732ZM56.3335 77.6925H66.0131V73.6925H56.3335V77.6925ZM66.0131 77.6925C71.127 77.6925 75.2727 73.5468 75.2727 68.4328H71.2727C71.2727 71.3376 68.9179 73.6925 66.0131 73.6925V77.6925ZM66.0131 63.1732C68.9179 63.1732 71.2727 65.528 71.2727 68.4328H75.2727C75.2727 63.3189 71.127 59.1732 66.0131 59.1732V63.1732Z" fill="#8F8F8F"/>
<path d="M25.1645 48.4357L6 29.2712L22.7641 22.7642L29.2712 6.00008L48.4356 25.1646" stroke="#8F8F8F" stroke-width="4" stroke-linecap="round" stroke-linejoin="round"/>
<path d="M25.1645 79.5643L6 98.7288L22.7641 105.236L29.2712 122L48.4356 102.835" stroke="#8F8F8F" stroke-width="4" stroke-linecap="round" stroke-linejoin="round"/>
<path d="M102.835 48.4357L122 29.2712L105.236 22.7642L98.7288 6.00008L79.5643 25.1646" stroke="#8F8F8F" stroke-width="4" stroke-linecap="round" stroke-linejoin="round"/>
<path d="M101.868 79.5643L121.032 98.7288L104.268 105.236L97.7609 122L78.5964 102.835" stroke="#8F8F8F" stroke-width="4" stroke-linecap="round" stroke-linejoin="round"/>
</svg>
