<svg width="16" height="16" viewBox="0 0 16 16" fill="none" xmlns="http://www.w3.org/2000/svg">
<g clip-path="url(#clip0_916_8811)">
<path d="M9.6002 0H6.39979C3.31151 0 0.799072 2.51244 0.799072 5.60072V8.00103C0.799072 10.1692 2.04951 12.1368 3.99948 13.0623V15.7353C3.99948 15.9674 4.28982 16.0888 4.45476 15.9239L6.77692 13.6018H9.60017C12.6884 13.6018 15.2009 11.0893 15.2009 8.00103V5.60072C15.2009 2.51244 12.6884 0 9.6002 0Z" fill="#AFAFAF"/>
<path d="M6.5491 5.74495L6.80985 5.48417L6.81013 5.48389L6.54907 5.74492L6.5491 5.74495Z" fill="#E5E5E5"/>
<path d="M9.45007 8.1239L9.18677 8.38721L9.18681 8.38725L9.45012 8.12394L9.45007 8.1239Z" fill="#E5E5E5"/>
<path d="M8.53347 4.53418C8.38619 4.53418 8.26678 4.65359 8.26678 4.80087C8.26678 4.94815 8.38619 5.06755 8.53347 5.06755C9.12172 5.06755 9.60028 5.54612 9.60028 6.13437C9.60028 6.27968 9.72166 6.40105 9.86697 6.40105C10.0123 6.40105 10.1337 6.27968 10.1337 6.13437C10.1337 5.25199 9.41585 4.53418 8.53347 4.53418Z" fill="white"/>
<path d="M8.53345 3.46729C8.43479 3.46729 8.33523 3.47275 8.23748 3.48354C8.09107 3.49969 7.98548 3.63147 8.00163 3.77791C8.01779 3.92435 8.14985 4.02966 8.29601 4.01375C8.37438 4.0051 8.45426 4.00069 8.53345 4.00069C9.70992 4.00069 10.667 4.95782 10.667 6.13429C10.667 6.2135 10.6626 6.29338 10.654 6.37175C10.638 6.51616 10.7454 6.65022 10.8898 6.66613C11.0343 6.68204 11.1682 6.57475 11.1842 6.43029C11.195 6.33254 11.2004 6.23297 11.2004 6.13429C11.2004 4.66372 10.004 3.46729 8.53345 3.46729Z" fill="white"/>
<path d="M8.53398 2.40039C8.43867 2.40039 8.34214 2.40402 8.24714 2.41123C8.10026 2.42236 7.9902 2.55048 8.00132 2.69733C8.01242 2.8442 8.14098 2.95427 8.28742 2.94314C8.36907 2.93692 8.45204 2.9338 8.53398 2.9338C10.2987 2.9338 11.7344 4.36948 11.7344 6.1342C11.7344 6.38389 11.7056 6.63245 11.6488 6.87295C11.6162 7.01077 11.701 7.15402 11.8377 7.19145C11.9815 7.23083 12.1336 7.14067 12.1679 6.99564C12.2342 6.71498 12.2678 6.42517 12.2678 6.1342C12.2678 4.07536 10.5928 2.40039 8.53398 2.40039Z" fill="white"/>
<path d="M12.4998 10.1715C12.3097 10.707 11.5551 11.1511 10.9532 11.2808C10.5414 11.3682 10.0035 11.438 8.19289 10.6893C5.87688 9.73225 4.38542 7.38486 4.26917 7.23256C4.15786 7.08026 3.33331 5.9896 3.33331 4.86159C3.33331 3.73359 3.90764 3.18432 4.13914 2.94851C4.32927 2.75494 4.64352 2.6665 4.94496 2.6665C5.04249 2.6665 5.13017 2.67142 5.20897 2.67535C5.44048 2.68517 5.55672 2.69893 5.70941 3.06347C5.89954 3.52037 6.36255 4.64837 6.41771 4.76432C6.47386 4.88026 6.53002 5.03747 6.45121 5.18977C6.37732 5.34699 6.3123 5.41675 6.19606 5.55038C6.07982 5.68401 5.96948 5.7862 5.85324 5.92966C5.74685 6.05445 5.62666 6.18808 5.76064 6.41898C5.89462 6.64498 6.35762 7.39862 7.03932 8.00389C7.91903 8.78504 8.63225 9.03462 8.8874 9.14073C9.07753 9.21934 9.3041 9.20067 9.443 9.05329C9.61934 8.86365 9.83705 8.54922 10.0587 8.23971C10.2163 8.01764 10.4153 7.99013 10.6242 8.06874C10.8369 8.14243 11.9629 8.69759 12.1944 8.81255C12.4259 8.9285 12.5786 8.98352 12.6348 9.0808C12.6899 9.17807 12.6899 9.63497 12.4998 10.1715Z" fill="white"/>
</g>
<defs>
<clipPath id="clip0_916_8811">
<rect width="16" height="16" fill="white"/>
</clipPath>
</defs>
</svg>
