<svg width="16" height="16" viewBox="0 0 16 16" fill="none" xmlns="http://www.w3.org/2000/svg">
<path d="M8.00186 0.533203H7.99812C3.88119 0.533203 0.533325 3.882 0.533325 7.99987C0.533325 9.6332 1.05973 11.1471 1.95479 12.3763L1.02426 15.1501L3.89426 14.2327C5.07492 15.0148 6.48332 15.4665 8.00186 15.4665C12.1188 15.4665 15.4667 12.1168 15.4667 7.99987C15.4667 3.88294 12.1188 0.533203 8.00186 0.533203Z" fill="#AFAFAF"/>
<path d="M12.657 11.2972C12.464 11.8422 11.698 12.2942 11.087 12.4262C10.669 12.5152 10.123 12.5862 8.28499 11.8242C5.93399 10.8502 4.41999 8.46117 4.30199 8.30617C4.18899 8.15117 3.35199 7.04118 3.35199 5.89318C3.35199 4.74518 3.93499 4.18618 4.16999 3.94618C4.36299 3.74918 4.68199 3.65918 4.98799 3.65918C5.08699 3.65918 5.17599 3.66418 5.25599 3.66818C5.49099 3.67818 5.60899 3.69218 5.76399 4.06318C5.95699 4.52818 6.42699 5.67618 6.48299 5.79418C6.53999 5.91218 6.59699 6.07218 6.51699 6.22718C6.44199 6.38718 6.37599 6.45818 6.25799 6.59418C6.13999 6.73018 6.02799 6.83418 5.90999 6.98018C5.80199 7.10718 5.67999 7.24318 5.81599 7.47818C5.95199 7.70818 6.42199 8.47517 7.11399 9.09117C8.00699 9.88617 8.73099 10.1402 8.98999 10.2482C9.18299 10.3282 9.41299 10.3092 9.55399 10.1592C9.73299 9.96617 9.95399 9.64617 10.179 9.33117C10.339 9.10517 10.541 9.07717 10.753 9.15717C10.969 9.23217 12.112 9.79717 12.347 9.91417C12.582 10.0322 12.737 10.0882 12.794 10.1872C12.85 10.2862 12.85 10.7512 12.657 11.2972Z" fill="white"/>
</svg>
