<svg width="9" height="16" viewBox="0 0 9 16" fill="none" xmlns="http://www.w3.org/2000/svg">
<path d="M2.29026 3.31096C2.29026 3.21576 2.30341 3.01014 2.3297 2.69545C2.35797 2.38009 2.47629 2.05019 2.68861 1.70375C2.89896 1.35865 3.24012 1.04858 3.71473 0.774208C4.18736 0.501162 4.87034 0.363647 5.76169 0.363647H8.27275V3.11593H6.43416C6.25207 3.11593 6.08248 3.18468 5.92932 3.32021C5.77747 3.45575 5.69925 3.58467 5.69925 3.70433V5.41665H8.27209C8.24514 5.75184 8.21556 6.07778 8.18138 6.39248L8.07949 7.22418C8.03873 7.50516 7.99732 7.76564 7.95657 8.00563H5.68084V15.6364H2.29026V8.00497H0.636383V5.41665H2.29026V3.31096Z" fill="black"/>
</svg>
