<svg width="16" height="16" viewBox="0 0 16 16" fill="none" xmlns="http://www.w3.org/2000/svg">
<path d="M11.5057 0.363647H4.61034C2.2687 0.363647 0.363617 2.2544 0.363617 4.57833V11.4215C0.363617 13.7456 2.2687 15.6362 4.61034 15.6362H11.5057C13.8475 15.6362 15.7526 13.7455 15.7526 11.4215V4.57833C15.7527 2.2544 13.8475 0.363647 11.5057 0.363647ZM14.3873 11.4215C14.3873 12.9984 13.0947 14.2812 11.5058 14.2812H4.61034C3.02157 14.2813 1.729 12.9984 1.729 11.4215V4.57833C1.729 3.00158 3.02157 1.71871 4.61034 1.71871H11.5057C13.0946 1.71871 14.3872 3.00158 14.3872 4.57833V11.4215H14.3873Z" fill="black"/>
<path d="M8.05807 4.0647C5.87154 4.0647 4.09271 5.83007 4.09271 8.00005C4.09271 10.17 5.87154 11.9352 8.05807 11.9352C10.2446 11.9352 12.0234 10.17 12.0234 8.00005C12.0234 5.83007 10.2446 4.0647 8.05807 4.0647ZM8.05807 10.5801C6.6245 10.5801 5.4581 9.42268 5.4581 7.99996C5.4581 6.57715 6.62441 5.41966 8.05807 5.41966C9.49173 5.41966 10.658 6.57715 10.658 7.99996C10.658 9.42268 9.49163 10.5801 8.05807 10.5801Z" fill="black"/>
<path d="M12.1898 2.91577C11.9267 2.91577 11.6683 3.02147 11.4825 3.20666C11.2958 3.39094 11.1885 3.6475 11.1885 3.90948C11.1885 4.17064 11.2959 4.42711 11.4825 4.6123C11.6682 4.79659 11.9267 4.90319 12.1898 4.90319C12.4538 4.90319 12.7114 4.79659 12.898 4.6123C13.0846 4.42711 13.1911 4.17055 13.1911 3.90948C13.1911 3.6475 13.0846 3.39094 12.898 3.20666C12.7123 3.02147 12.4538 2.91577 12.1898 2.91577Z" fill="black"/>
</svg>
