<svg width="18" height="16" viewBox="0 0 18 16" fill="none" xmlns="http://www.w3.org/2000/svg">
<path d="M0.581035 7.68687L4.60292 9.19543L6.15963 14.2267C6.25924 14.549 6.65133 14.6681 6.91157 14.4542L9.15344 12.6175C9.38843 12.4251 9.72316 12.4155 9.96874 12.5947L14.0123 15.545C14.2907 15.7483 14.6851 15.595 14.7549 15.2569L17.717 0.937805C17.7932 0.5685 17.4321 0.260414 17.0822 0.396419L0.576322 6.79559C0.168991 6.95346 0.17254 7.53303 0.581035 7.68687ZM5.90875 8.39238L13.769 3.52715C13.9103 3.43997 14.0556 3.63193 13.9343 3.74502L7.44731 9.80499C7.2193 10.0183 7.07222 10.3038 7.03056 10.6136L6.80958 12.2593C6.78032 12.4791 6.47317 12.5009 6.41284 12.2882L5.56298 9.28717C5.46564 8.94488 5.60749 8.57926 5.90875 8.39238Z" fill="black"/>
</svg>
