<svg width="18" height="18" viewBox="0 0 18 18" fill="none" xmlns="http://www.w3.org/2000/svg">
<path fill-rule="evenodd" clip-rule="evenodd" d="M16.808 11.4013L16.8027 11.4213C16.3946 13.0679 14.5552 14.8358 12.8659 15.2031L12.8469 15.2073C11.4811 15.468 10.1047 15.5978 8.72943 15.5978C8.32455 15.5978 7.91967 15.5852 7.51479 15.563L5.64897 17.4987C5.18701 17.979 4.37514 17.6518 4.37514 16.9868V15.1482C2.74928 14.6848 1.04625 12.9982 0.655119 11.4213L0.650891 11.4013C0.146643 9.10142 0.146643 6.76884 0.650891 4.46898L0.655119 4.44893C1.06423 2.8024 2.90362 1.03449 4.59185 0.667186L4.61193 0.662964C7.34354 0.142619 10.1143 0.142619 12.8469 0.662964L12.8659 0.667186C14.5552 1.03449 16.3946 2.8024 16.8027 4.44893L16.808 4.46898C17.3122 6.76884 17.3122 9.10142 16.808 11.4013ZM12.553 2.14484C10.0159 1.66249 7.44396 1.66249 4.90581 2.14484C3.79583 2.39182 2.39937 3.72699 2.12663 4.80145C1.67313 6.88072 1.67313 8.98743 2.12663 11.0667C2.39937 12.1412 3.79583 13.4774 4.90581 13.7233H4.90687C4.95655 13.7328 4.9925 13.7761 4.9925 13.8257V16.8707C4.9925 17.0227 5.17855 17.0976 5.28426 16.9879L6.73358 15.5028C6.73358 15.5028 7.88796 14.3197 8.09621 14.1064C8.11629 14.0853 8.14484 14.0748 8.17338 14.0748C9.63644 14.1149 11.1006 13.9977 12.553 13.7212C13.663 13.4742 15.0595 12.1391 15.3322 11.0646C15.7868 8.98532 15.7868 6.87861 15.3322 4.79934C15.0595 3.72487 13.6641 2.38865 12.553 2.14273V2.14484ZM12.5922 11.2219C12.3702 11.6926 12.0477 12.0842 11.5815 12.3333C11.4505 12.404 11.2929 12.4261 11.145 12.4726C10.9748 12.4209 10.812 12.386 10.6608 12.3238C9.09625 11.6757 7.65645 10.8398 6.51581 9.55739C5.86674 8.82806 5.35932 8.00585 4.93013 7.13509C4.7261 6.7224 4.55485 6.29283 4.38042 5.86642C4.2208 5.47801 4.45548 5.07587 4.70284 4.78245C4.93435 4.50803 5.23352 4.29694 5.557 4.14178C5.80965 4.02041 6.05808 4.09007 6.24201 4.30433C6.64055 4.76556 7.00631 5.25108 7.30231 5.7862C7.48413 6.11551 7.43445 6.51764 7.10463 6.7414C7.02429 6.79628 6.95134 6.85961 6.87629 6.92083C6.81075 6.97466 6.74943 7.02954 6.70398 7.10237C6.62152 7.23536 6.61835 7.39368 6.67121 7.53828C7.0782 8.65602 7.76533 9.52467 8.89116 9.99224C9.07193 10.0672 9.2527 10.1548 9.4599 10.1305C9.80769 10.0904 9.9208 9.70937 10.1639 9.50989C10.4018 9.31568 10.7062 9.31252 10.9631 9.47506C11.22 9.6376 11.4684 9.81175 11.7158 9.98696C11.9589 10.1601 12.2 10.3289 12.4241 10.5252C12.6397 10.7142 12.7137 10.9633 12.5922 11.2197V11.2219ZM10.572 7.5805C10.4747 7.58261 10.5128 7.5805 10.5498 7.57944C10.3933 7.57416 10.3077 7.48234 10.2908 7.33246C10.2781 7.22269 10.2686 7.11292 10.2432 7.00632C10.1914 6.79734 10.0804 6.60313 9.90389 6.47437C9.82038 6.4142 9.72629 6.36987 9.62692 6.34138C9.50113 6.30549 9.3711 6.31499 9.2453 6.28438C9.10893 6.25166 9.03388 6.14084 9.05502 6.01313C9.07405 5.89703 9.18716 5.80626 9.31401 5.81575C10.1079 5.87275 10.6745 6.28227 10.7559 7.2153C10.7612 7.28074 10.7686 7.3504 10.7538 7.41373C10.7306 7.51611 10.6566 7.56889 10.5826 7.57944C10.5889 7.57944 10.5878 7.5805 10.5709 7.58155L10.572 7.5805ZM10.0783 5.4474C9.83518 5.32813 9.57195 5.25425 9.3045 5.20992C9.18822 5.19092 9.06982 5.17931 8.95248 5.16242C8.81082 5.14237 8.73471 5.05265 8.74105 4.91227C8.7474 4.7814 8.84359 4.68746 8.98631 4.69485C9.45567 4.72124 9.90917 4.82256 10.3267 5.04315C11.1756 5.49173 11.6608 6.201 11.8025 7.1467C11.8088 7.18997 11.8194 7.23219 11.8226 7.27547C11.831 7.38207 11.8353 7.48761 11.8437 7.62799C11.8405 7.65332 11.8384 7.71348 11.8236 7.77048C11.7697 7.97524 11.4579 8.00163 11.386 7.79476C11.3648 7.73354 11.3617 7.66388 11.3617 7.59738C11.3606 7.16464 11.2665 6.7319 11.0477 6.35615C10.8225 5.9688 10.48 5.64371 10.0773 5.4474H10.0783ZM12.7021 8.3721C12.5382 8.37421 12.4642 8.237 12.4537 8.09029C12.4325 7.80003 12.4177 7.50767 12.3776 7.21953C12.1661 5.69754 10.9504 4.43837 9.43241 4.16817C9.20407 4.12701 8.97045 4.11645 8.73894 4.09218C8.59306 4.07634 8.40066 4.0679 8.36895 3.88636C8.34146 3.73437 8.47043 3.61299 8.61526 3.60561C8.65437 3.6035 8.69454 3.60561 8.73365 3.60561C10.6988 3.66049 8.85311 3.60983 8.73894 3.60561C10.7834 3.66471 12.4611 5.02099 12.8215 7.03904C12.8829 7.38312 12.9051 7.73565 12.9325 8.08501C12.9442 8.23172 12.8607 8.37104 12.7021 8.37315V8.3721Z" fill="black"/>
</svg>
