<svg width="18" height="11" viewBox="0 0 18 11" fill="none" xmlns="http://www.w3.org/2000/svg">
<path d="M17.6348 9.53925C17.6136 9.4937 17.5939 9.45592 17.5756 9.42565C17.2728 8.88023 16.6941 8.21077 15.8398 7.41708L15.8218 7.3989L15.8128 7.38999L15.8036 7.38085H15.7944C15.4068 7.01127 15.1612 6.76277 15.0584 6.63554C14.8703 6.39318 14.8282 6.14786 14.931 5.8993C15.0036 5.7115 15.2765 5.31489 15.7489 4.70893C15.9974 4.38779 16.1942 4.13041 16.3395 3.9365C17.3878 2.54295 17.8422 1.65246 17.7028 1.26467L17.6486 1.17405C17.6123 1.11949 17.5184 1.06958 17.3671 1.02406C17.2154 0.978639 17.0216 0.971127 16.7853 1.0014L14.168 1.01948C14.1256 1.00445 14.0651 1.00585 13.9862 1.02406C13.9074 1.04227 13.868 1.0514 13.868 1.0514L13.8225 1.07416L13.7863 1.10151C13.756 1.11958 13.7227 1.15138 13.6863 1.19684C13.6501 1.24213 13.6198 1.29529 13.5957 1.35586C13.3107 2.08895 12.9867 2.77054 12.6231 3.4006C12.399 3.77629 12.1931 4.10189 12.005 4.37757C11.8173 4.65316 11.6597 4.85621 11.5326 4.98636C11.4053 5.11665 11.2904 5.22102 11.1872 5.29986C11.0842 5.37874 11.0055 5.41207 10.951 5.39988C10.8965 5.38768 10.845 5.37559 10.7964 5.36349C10.7116 5.30894 10.6434 5.23474 10.592 5.14084C10.5404 5.04694 10.5056 4.92875 10.4875 4.78637C10.4694 4.6439 10.4587 4.52135 10.4556 4.41832C10.4528 4.31541 10.4541 4.16985 10.4602 3.98205C10.4665 3.79415 10.4694 3.66702 10.4694 3.60037C10.4694 3.3701 10.4739 3.1202 10.4829 2.8506C10.492 2.58099 10.4995 2.36738 10.5057 2.21001C10.5118 2.05248 10.5147 1.88581 10.5147 1.71011C10.5147 1.5344 10.504 1.39661 10.4829 1.29659C10.462 1.19671 10.4299 1.09975 10.3877 1.00576C10.3452 0.911858 10.283 0.839221 10.2014 0.787656C10.1196 0.736154 10.018 0.695283 9.89697 0.664917C9.57583 0.592248 9.16691 0.552937 8.67 0.546825C7.54316 0.53473 6.81911 0.607494 6.498 0.765024C6.37078 0.831582 6.25565 0.922522 6.15271 1.03756C6.04362 1.1709 6.02841 1.24366 6.10716 1.25563C6.47073 1.31009 6.72811 1.44037 6.87959 1.64635L6.93418 1.7555C6.97664 1.83425 7.01904 1.97366 7.06147 2.17356C7.10384 2.37346 7.13118 2.59458 7.14321 2.83681C7.17345 3.27916 7.17345 3.65782 7.14321 3.97282C7.11288 4.28794 7.08423 4.53326 7.05689 4.70896C7.02954 4.88467 6.98867 5.02704 6.93418 5.13606C6.87959 5.24512 6.84327 5.31177 6.82506 5.33596C6.80689 5.36015 6.79174 5.3754 6.77971 5.38138C6.70096 5.41156 6.61906 5.42693 6.53429 5.42693C6.4494 5.42693 6.34646 5.38447 6.22531 5.29961C6.1042 5.21475 5.9785 5.09819 5.84821 4.94973C5.71793 4.80124 5.571 4.59373 5.40736 4.32719C5.24385 4.06064 5.07419 3.74561 4.89849 3.3821L4.75312 3.11848C4.66224 2.94889 4.5381 2.70195 4.38057 2.37788C4.22294 2.05369 4.08362 1.74009 3.96251 1.43716C3.91409 1.30993 3.84136 1.21307 3.74444 1.14642L3.69895 1.11908C3.66871 1.09488 3.62017 1.0692 3.55358 1.04182C3.48689 1.01448 3.41731 0.994872 3.34455 0.982809L0.854472 1.00089C0.600018 1.00089 0.427369 1.05853 0.33646 1.17366L0.300078 1.22813C0.281903 1.25846 0.272736 1.30691 0.272736 1.37359C0.272736 1.44025 0.290911 1.52205 0.327293 1.61891C0.690799 2.47324 1.0861 3.29718 1.51321 4.09084C1.94031 4.88451 2.31145 5.52382 2.62642 6.00822C2.94144 6.49297 3.26255 6.95047 3.58974 7.3805C3.91693 7.81069 4.1335 8.08638 4.23946 8.20749C4.34556 8.32883 4.42889 8.41955 4.48946 8.48012L4.7167 8.69819C4.8621 8.84363 5.07562 9.0178 5.35736 9.22072C5.63915 9.42377 5.95112 9.62367 6.29343 9.82073C6.6358 10.0175 7.0341 10.178 7.48854 10.3022C7.94292 10.4265 8.38518 10.4764 8.81537 10.4523H9.86049C10.0725 10.434 10.233 10.3674 10.3422 10.2523L10.3783 10.2068C10.4027 10.1706 10.4254 10.1144 10.4464 10.0388C10.4677 9.96311 10.4783 9.87968 10.4783 9.78893C10.4721 9.52846 10.4919 9.29371 10.5372 9.08471C10.5825 8.87578 10.6341 8.71825 10.6919 8.61216C10.7496 8.50616 10.8147 8.41672 10.8872 8.34421C10.9598 8.27154 11.0116 8.22751 11.042 8.21236C11.0721 8.19712 11.0962 8.18677 11.1144 8.18056C11.2598 8.13212 11.4309 8.17904 11.628 8.32154C11.825 8.46392 12.0097 8.63972 12.1824 8.84866C12.3551 9.05778 12.5626 9.29241 12.8049 9.55288C13.0473 9.81344 13.2593 10.0071 13.441 10.1345L13.6227 10.2436C13.7441 10.3164 13.9016 10.383 14.0955 10.4436C14.2891 10.5041 14.4586 10.5193 14.6043 10.489L16.9307 10.4527C17.1608 10.4527 17.3398 10.4146 17.4668 10.339C17.5941 10.2633 17.6697 10.1799 17.6941 10.0891C17.7184 9.99828 17.7197 9.89522 17.6987 9.77999C17.6771 9.66505 17.6559 9.58468 17.6348 9.53925Z" fill="black"/>
</svg>
