<svg width="18" height="18" viewBox="0 0 18 18" fill="none" xmlns="http://www.w3.org/2000/svg">
<path d="M17.7273 8.7752C17.7273 13.4711 13.8913 17.2777 9.15862 17.2777C7.65617 17.2777 6.24468 16.8937 5.01666 16.2198L0.272705 17.7273L1.81937 13.1654C1.03915 11.8842 0.589796 10.3816 0.589796 8.7752C0.589796 4.07935 4.42611 0.272705 9.15862 0.272705C13.8917 0.272705 17.7273 4.07935 17.7273 8.7752ZM9.15862 1.62679C5.18597 1.62679 1.95455 4.83358 1.95455 8.7752C1.95455 10.3393 2.46441 11.7879 3.32686 12.9662L2.42679 15.6211L5.19527 14.7412C6.33273 15.488 7.69535 15.9236 9.15881 15.9236C13.1309 15.9236 16.3629 12.7172 16.3629 8.77559C16.3629 4.83397 13.1311 1.62679 9.15862 1.62679ZM13.4856 10.7334C13.4327 10.6467 13.2928 10.5944 13.083 10.4902C12.8728 10.3861 11.8398 9.88163 11.6478 9.81239C11.4553 9.74296 11.3148 9.70805 11.175 9.91654C11.0352 10.1252 10.6326 10.5944 10.5098 10.7334C10.3872 10.8729 10.2649 10.8903 10.0546 10.786C9.84478 10.6818 9.16812 10.4615 8.3658 9.75169C7.74151 9.19935 7.31988 8.51746 7.19731 8.30858C7.07494 8.1001 7.18451 7.98742 7.28943 7.88366C7.38408 7.79018 7.49966 7.64027 7.60458 7.51867C7.70989 7.39687 7.7448 7.31018 7.81443 7.17094C7.88483 7.03188 7.84972 6.91028 7.79697 6.80575C7.74461 6.7016 7.32415 5.67605 7.14921 5.25869C6.97428 4.84172 6.79954 4.91115 6.67678 4.91115C6.5544 4.91115 6.41418 4.8937 6.27416 4.8937C6.13414 4.8937 5.90645 4.94587 5.71387 5.15435C5.52148 5.36303 4.97903 5.86727 4.97903 6.89263C4.97903 7.91818 5.73132 8.90902 5.83663 9.04788C5.94155 9.18674 7.28924 11.3596 9.42451 12.1942C11.56 13.0283 11.56 12.75 11.9451 12.7151C12.3299 12.6804 13.1875 12.211 13.3632 11.7246C13.5378 11.2375 13.5378 10.8203 13.4856 10.7334Z" fill="black"/>
</svg>
