<svg width="19" height="14" viewBox="0 0 19 14" fill="none" xmlns="http://www.w3.org/2000/svg">
<path d="M18.7169 5.46584C18.7101 5.0977 18.6806 4.63224 18.629 4.06988C18.5772 3.5072 18.503 3.00434 18.4065 2.56126C18.2961 2.0636 18.0563 1.64424 17.6872 1.30333C17.3182 0.962343 16.8887 0.764681 16.3987 0.710053C14.8669 0.539723 12.5522 0.454468 9.45451 0.454468C6.35679 0.454468 4.04206 0.539723 2.5104 0.710053C2.02047 0.764645 1.59263 0.962343 1.22707 1.30333C0.861366 1.64413 0.623325 2.06349 0.512914 2.56126C0.409534 3.00448 0.331818 3.50731 0.280092 4.06988C0.228439 4.63224 0.199078 5.09752 0.192227 5.46584C0.185231 5.83401 0.181824 6.34532 0.181824 6.99992C0.181824 7.65445 0.185231 8.16591 0.192263 8.53401C0.199114 8.90239 0.228475 9.36761 0.280128 9.92993C0.331854 10.4926 0.406054 10.9954 0.502655 11.4386C0.613067 11.9364 0.852775 12.3557 1.22189 12.6964C1.59108 13.0374 2.02065 13.2351 2.51044 13.2896C4.0421 13.4602 6.35668 13.5454 9.45455 13.5454C12.5525 13.5454 14.8669 13.4602 16.3987 13.2896C16.8887 13.2351 17.3164 13.0374 17.6821 12.6964C18.0478 12.3556 18.2857 11.9361 18.3961 11.4386C18.4995 10.9954 18.5772 10.4926 18.629 9.92993C18.6806 9.36764 18.7099 8.90218 18.7169 8.53401C18.7238 8.16591 18.7273 7.65445 18.7273 6.99992C18.7273 6.34532 18.7238 5.83401 18.7169 5.46584ZM13.1181 7.55221L7.81951 10.8248C7.72287 10.893 7.60546 10.9271 7.46754 10.9271C7.36412 10.9271 7.25719 10.8997 7.14682 10.8452C6.91918 10.7226 6.8054 10.5316 6.8054 10.2726V3.72732C6.8054 3.46837 6.91922 3.27737 7.14682 3.15468C7.38145 3.03178 7.60561 3.03866 7.81951 3.17513L13.1182 6.44777C13.3251 6.56347 13.4285 6.74767 13.4285 6.99996C13.4285 7.25214 13.325 7.4364 13.1181 7.55221Z" fill="black"/>
</svg>
